<?xml version="1.0" encoding="UTF-8" standalone="no"?>
<!-- Created with Inkscape (http://www.inkscape.org/) -->

<svg
   xmlns:dc="http://purl.org/dc/elements/1.1/"
   xmlns:cc="http://creativecommons.org/ns#"
   xmlns:rdf="http://www.w3.org/1999/02/22-rdf-syntax-ns#"
   xmlns:svg="http://www.w3.org/2000/svg"
   xmlns="http://www.w3.org/2000/svg"
   xmlns:xlink="http://www.w3.org/1999/xlink"
   xmlns:sodipodi="http://sodipodi.sourceforge.net/DTD/sodipodi-0.dtd"
   xmlns:inkscape="http://www.inkscape.org/namespaces/inkscape"
   width="48"
   height="48"
   viewBox="0 0 48.000001 48.000001"
   id="svg2"
   version="1.1"
   inkscape:version="0.92.4 5da689c313, 2019-01-14"
   sodipodi:docname="com.github.artemanufrij.metronome.svg">
  <defs
     id="defs4"><linearGradient
   inkscape:collect="always"
   id="linearGradient1192">
  <stop
     style="stop-color:#d9d9d9;stop-opacity:0.30857143"
     offset="0"
     id="stop1188" />
  <stop
     id="stop1206"
     offset="0.22236782"
     style="stop-color:#dcdcdc;stop-opacity:0.09714286" />
  <stop
     id="stop1204"
     offset="0.72553766"
     style="stop-color:#ececec;stop-opacity:0.08" />
  <stop
     style="stop-color:#ffffff;stop-opacity:0.53142858"
     offset="1"
     id="stop1190" />
</linearGradient>
<linearGradient
   inkscape:collect="always"
   id="linearGradient1009">
  <stop
     style="stop-color:#f29950;stop-opacity:1"
     offset="0"
     id="stop1005" />
  <stop
     style="stop-color:#e76d27;stop-opacity:1"
     offset="1"
     id="stop1007" />
</linearGradient>
<linearGradient
   inkscape:collect="always"
   id="linearGradient1001">
  <stop
     style="stop-color:#e14f4f;stop-opacity:1"
     offset="0"
     id="stop997" />
  <stop
     style="stop-color:#bc242c;stop-opacity:1"
     offset="1"
     id="stop999" />
</linearGradient>
<linearGradient
   inkscape:collect="always"
   id="linearGradient4224">
  <stop
     style="stop-color:#000000;stop-opacity:0.6"
     offset="0"
     id="stop4226" />
  <stop
     style="stop-color:#000000;stop-opacity:0;"
     offset="1"
     id="stop4228" />
</linearGradient>
<linearGradient
   inkscape:collect="always"
   id="linearGradient4202">
  <stop
     style="stop-color:#000000;stop-opacity:0.6"
     offset="0"
     id="stop4204" />
  <stop
     style="stop-color:#000000;stop-opacity:0;"
     offset="1"
     id="stop4206" />
</linearGradient>
<linearGradient
   inkscape:collect="always"
   id="linearGradient4189">
  <stop
     style="stop-color:#000000;stop-opacity:0"
     offset="0"
     id="stop4192" />
  <stop
     id="stop4198"
     offset="0.5"
     style="stop-color:#000000;stop-opacity:0.6" />
  <stop
     style="stop-color:#000000;stop-opacity:0;"
     offset="1"
     id="stop4194" />
</linearGradient>
<linearGradient
   inkscape:collect="always"
   id="linearGradient4207">
  <stop
     style="stop-color:#000000;stop-opacity:0.1254902"
     offset="0"
     id="stop4209" />
  <stop
     style="stop-color:#000000;stop-opacity:0"
     offset="1"
     id="stop4211" />
</linearGradient>
<linearGradient
   id="linearGradient4199"
   inkscape:collect="always">
  <stop
     id="stop4201"
     offset="0"
     style="stop-color:#000000;stop-opacity:0.25098041" />
  <stop
     id="stop4203"
     offset="1"
     style="stop-color:#ffffff;stop-opacity:0.50196081" />
</linearGradient>
<linearGradient
   inkscape:collect="always"
   id="linearGradient4187">
  <stop
     style="stop-color:#000000;stop-opacity:0.43921569"
     offset="0"
     id="stop4189" />
  <stop
     style="stop-color:#000000;stop-opacity:0.25098041"
     offset="1"
     id="stop4191" />
</linearGradient>
<linearGradient
   inkscape:collect="always"
   xlink:href="#linearGradient4187"
   id="linearGradient4193"
   x1="32"
   y1="1048"
   x2="32"
   y2="993"
   gradientUnits="userSpaceOnUse" />
<linearGradient
   inkscape:collect="always"
   xlink:href="#linearGradient4199"
   id="linearGradient4197"
   gradientUnits="userSpaceOnUse"
   x1="32"
   y1="1030"
   x2="32"
   y2="993"
   gradientTransform="translate(0,1.0087664)" />
<linearGradient
   inkscape:collect="always"
   xlink:href="#linearGradient4207"
   id="linearGradient4213"
   x1="32"
   y1="1046"
   x2="32"
   y2="993"
   gradientUnits="userSpaceOnUse" />
<filter
   style="color-interpolation-filters:sRGB"
   inkscape:label="Drop Shadow"
   id="filter4441">
  <feFlood
     flood-opacity="0.498039"
     flood-color="rgb(0,0,0)"
     result="flood"
     id="feFlood4443" />
  <feComposite
     in="flood"
     in2="SourceGraphic"
     operator="in"
     result="composite1"
     id="feComposite4445" />
  <feGaussianBlur
     in="composite1"
     stdDeviation="1"
     result="blur"
     id="feGaussianBlur4447" />
  <feOffset
     dx="1.38778e-16"
     dy="1"
     result="offset"
     id="feOffset4449" />
  <feComposite
     in="SourceGraphic"
     in2="offset"
     operator="over"
     result="composite2"
     id="feComposite4451" />
</filter>
<filter
   style="color-interpolation-filters:sRGB"
   inkscape:label="Drop Shadow"
   id="filter4175">
  <feFlood
     flood-opacity="0.498039"
     flood-color="rgb(0,0,0)"
     result="flood"
     id="feFlood4177" />
  <feComposite
     in="flood"
     in2="SourceGraphic"
     operator="in"
     result="composite1"
     id="feComposite4179" />
  <feGaussianBlur
     in="composite1"
     stdDeviation="1"
     result="blur"
     id="feGaussianBlur4181" />
  <feOffset
     dx="1.38778e-16"
     dy="1"
     result="offset"
     id="feOffset4183" />
  <feComposite
     in="SourceGraphic"
     in2="offset"
     operator="over"
     result="composite2"
     id="feComposite4185" />
</filter>
<filter
   style="color-interpolation-filters:sRGB"
   inkscape:label="Drop Shadow"
   id="filter4187">
  <feFlood
     flood-opacity="0.498039"
     flood-color="rgb(0,0,0)"
     result="flood"
     id="feFlood4189" />
  <feComposite
     in="flood"
     in2="SourceGraphic"
     operator="in"
     result="composite1"
     id="feComposite4191" />
  <feGaussianBlur
     in="composite1"
     stdDeviation="1"
     result="blur"
     id="feGaussianBlur4193" />
  <feOffset
     dx="1.38778e-16"
     dy="1"
     result="offset"
     id="feOffset4195" />
  <feComposite
     in="SourceGraphic"
     in2="offset"
     operator="over"
     result="composite2"
     id="feComposite4197" />
</filter>
<linearGradient
   inkscape:collect="always"
   xlink:href="#linearGradient4189"
   id="linearGradient4196"
   x1="32"
   y1="58"
   x2="32"
   y2="62"
   gradientUnits="userSpaceOnUse"
   gradientTransform="matrix(0.95652174,0,0,1.25,1.3913043,-15.5)" />
<radialGradient
   inkscape:collect="always"
   xlink:href="#linearGradient4202"
   id="radialGradient4208"
   cx="9"
   cy="60"
   fx="9"
   fy="60"
   r="4"
   gradientTransform="matrix(-2,0,0,-0.625,28,97)"
   gradientUnits="userSpaceOnUse" />
<radialGradient
   inkscape:collect="always"
   xlink:href="#linearGradient4224"
   id="radialGradient4230"
   cx="56"
   cy="60"
   fx="56"
   fy="60"
   r="3"
   gradientTransform="matrix(2.6666666,0,0,0.83333334,-95.333334,9.5)"
   gradientUnits="userSpaceOnUse" />
<radialGradient
   inkscape:collect="always"
   xlink:href="#linearGradient4203"
   id="radialGradient4209"
   cx="32"
   cy="-7"
   fx="32"
   fy="-7"
   r="28"
   gradientTransform="matrix(1,0,0,0.71428572,-9.9121094e-7,9)"
   gradientUnits="userSpaceOnUse" />
<linearGradient
   inkscape:collect="always"
   id="linearGradient4203">
  <stop
     style="stop-color:#ffffff;stop-opacity:0.4"
     offset="0"
     id="stop4205" />
  <stop
     style="stop-color:#ffffff;stop-opacity:0"
     offset="1"
     id="stop4207" />
</linearGradient>

	
	
	
	
	
	
	
	
	
	
	
	
	
<linearGradient
   inkscape:collect="always"
   xlink:href="#linearGradient1009"
   id="linearGradient1011"
   x1="19.163202"
   y1="158.68634"
   x2="330.28186"
   y2="224.68636"
   gradientUnits="userSpaceOnUse" />
<linearGradient
   inkscape:collect="always"
   xlink:href="#linearGradient1001"
   id="linearGradient1015"
   gradientUnits="userSpaceOnUse"
   x1="16.493269"
   y1="362.08194"
   x2="382.76013"
   y2="392.14819"
   gradientTransform="matrix(0.08332767,0,0,0.08332767,8.0597307,23.999999)" />

		
	
		
	<linearGradient
   inkscape:collect="always"
   xlink:href="#linearGradient1001"
   id="linearGradient1039"
   x1="85.821709"
   y1="26.51475"
   x2="98.808228"
   y2="26.744394"
   gradientUnits="userSpaceOnUse"
   gradientTransform="matrix(0.71573597,0,0,0.71573597,-42.204974,18.274112)" />

		
	
		
	
		
	<mask
   maskUnits="userSpaceOnUse"
   id="mask1184">
  <path
     id="path1186"
     d="m 22.353516,8 c -1.657854,0 -3.064186,1.2170306 -3.302735,2.857422 l -5.021484,34.583984 c -2.123795,0.298924 -3.82266,1.993369 -4.0507814,4.181641 l -0.9375,8.998047 c -0.076839,0.731132 0.4966325,1.36914 1.2324224,1.36914 h 41.576171 c 0.73579,0 1.309142,-0.638008 1.232422,-1.36914 l -0.9375,-8.998047 C 51.916411,47.434775 50.217545,45.74033 48.09375,45.441406 L 43.072266,10.857422 C 42.834764,9.2170306 41.427385,8 39.769531,8 Z"
     style="fill:#fef6ef;fill-opacity:1;stroke:none;stroke-width:0.11642237;stroke-opacity:1"
     inkscape:connector-curvature="0" />
</mask>
<linearGradient
   inkscape:collect="always"
   xlink:href="#linearGradient1192"
   id="linearGradient1194"
   x1="31.034418"
   y1="58.561069"
   x2="30.83861"
   y2="8"
   gradientUnits="userSpaceOnUse" />
<linearGradient
   id="linearGradient4170">
  <stop
     id="stop1245"
     offset="0"
     style="stop-color:#575d5e;stop-opacity:1" />
  <stop
     id="stop1247"
     offset="1"
     style="stop-color:#292d2e;stop-opacity:1" />
</linearGradient>
<linearGradient
   xlink:href="#linearGradient3924-2-2-5-8"
   gradientUnits="userSpaceOnUse"
   gradientTransform="matrix(1.4324324,0,0,1.4362832,59.562469,-7.4574321)"
   y2="43"
   y1="5"
   x2="24"
   x1="24"
   id="linearGradient3180" />
<linearGradient
   id="linearGradient3924-2-2-5-8">
  <stop
     id="stop1251"
     style="stop-color:#ffffff;stop-opacity:1"
     offset="0" />
  <stop
     id="stop1253"
     style="stop-color:#ffffff;stop-opacity:0.23529412"
     offset=".063" />
  <stop
     id="stop1255"
     style="stop-color:#ffffff;stop-opacity:0.15686275"
     offset=".951" />
  <stop
     id="stop1257"
     style="stop-color:#ffffff;stop-opacity:0.39215687"
     offset="1" />
</linearGradient>
<radialGradient
   xlink:href="#linearGradient3688-166-749-4-0-3-8"
   gradientUnits="userSpaceOnUse"
   gradientTransform="matrix(2.003784,0,0,1.4,27.98813,-17.4)"
   fy="43.5"
   fx="4.993"
   r="2.5"
   cy="43.5"
   cx="4.993"
   id="radialGradient3337-2-2" />
<linearGradient
   id="linearGradient3688-166-749-4-0-3-8">
  <stop
     id="stop1261"
     style="stop-color:#181818;stop-opacity:1"
     offset="0" />
  <stop
     id="stop1263"
     style="stop-color:#181818;stop-opacity:0"
     offset="1" />
</linearGradient>
<radialGradient
   xlink:href="#linearGradient3688-166-749-4-0-3-8"
   gradientUnits="userSpaceOnUse"
   gradientTransform="matrix(2.003784,0,0,1.4,-20.01187,-104.4)"
   fy="43.5"
   fx="4.993"
   r="2.5"
   cy="43.5"
   cx="4.993"
   id="radialGradient3339-1-4" />
<linearGradient
   id="linearGradient3702-501-757-8-4-1-1">
  <stop
     id="stop1272"
     style="stop-color:#181818;stop-opacity:0"
     offset="0" />
  <stop
     id="stop1274"
     style="stop-color:#181818;stop-opacity:1"
     offset=".5" />
  <stop
     id="stop1276"
     style="stop-color:#181818;stop-opacity:0"
     offset="1" />
</linearGradient>
<linearGradient
   xlink:href="#linearGradient3702-501-757-8-4-1-1"
   gradientUnits="userSpaceOnUse"
   y2="39.999001"
   y1="47.028"
   x2="25.058001"
   x1="25.058001"
   id="linearGradient4159" />
<linearGradient
   xlink:href="#linearGradient4170"
   gradientUnits="userSpaceOnUse"
   y2="59"
   y1="5"
   x2="32"
   x1="32"
   id="linearGradient4166"
   gradientTransform="translate(61.94085,-4.986654)" />
<linearGradient
   inkscape:collect="always"
   xlink:href="#linearGradient1009"
   id="linearGradient1487"
   gradientUnits="userSpaceOnUse"
   x1="19.163202"
   y1="158.68634"
   x2="330.28186"
   y2="224.68636" />
<linearGradient
   inkscape:collect="always"
   xlink:href="#linearGradient1009"
   id="linearGradient1489"
   gradientUnits="userSpaceOnUse"
   x1="19.163202"
   y1="158.68634"
   x2="330.28186"
   y2="224.68636" />
<linearGradient
   inkscape:collect="always"
   xlink:href="#linearGradient1009"
   id="linearGradient1491"
   gradientUnits="userSpaceOnUse"
   x1="19.163202"
   y1="158.68634"
   x2="330.28186"
   y2="224.68636" />
</defs>
  <sodipodi:namedview
     id="base"
     pagecolor="#ffffff"
     bordercolor="#666666"
     borderopacity="1.0"
     inkscape:pageopacity="0.0"
     inkscape:pageshadow="2"
     inkscape:zoom="15.999999"
     inkscape:cx="19.43621"
     inkscape:cy="36.732117"
     inkscape:document-units="px"
     inkscape:current-layer="layer6"
     showgrid="true"
     inkscape:window-width="2560"
     inkscape:window-height="1386"
     inkscape:window-x="0"
     inkscape:window-y="28"
     inkscape:window-maximized="1"
     units="px"
     showguides="true"
     inkscape:guide-bbox="true"
     inkscape:snap-center="true"
     inkscape:snap-grids="false"
     inkscape:object-paths="true"
     inkscape:snap-intersection-paths="true"
     inkscape:snap-page="true">
    <inkscape:grid
       type="xygrid"
       id="grid964" />
    <sodipodi:guide
       position="56.000001,3.0000001"
       orientation="0,1"
       id="guide966"
       inkscape:locked="false" />
    <sodipodi:guide
       position="50.000001,40.000001"
       orientation="0,1"
       id="guide968"
       inkscape:locked="false" />
  </sodipodi:namedview>
  <metadata
     id="metadata7">
    <rdf:RDF>
      <cc:Work
         rdf:about="">
        <dc:format>image/svg+xml</dc:format>
        <dc:type
           rdf:resource="http://purl.org/dc/dcmitype/StillImage" />
        <dc:title></dc:title>
      </cc:Work>
    </rdf:RDF>
  </metadata>
  <g
     inkscape:groupmode="layer"
     id="layer3"
     inkscape:label="Shadow"
     style="display:none"
     transform="translate(0,-16)">
    <rect
       style="opacity:1;fill:url(#linearGradient4196);fill-opacity:1;stroke:none;stroke-width:1;stroke-miterlimit:4;stroke-dasharray:none;stroke-opacity:0.25098039"
       id="rect4187"
       width="44"
       height="5"
       x="10"
       y="57"
       ry="0" />
    <rect
       style="opacity:1;fill:url(#radialGradient4208);fill-opacity:1;stroke:none;stroke-width:1;stroke-miterlimit:4;stroke-dasharray:none;stroke-opacity:0.25098039"
       id="rect4200"
       width="8"
       height="5"
       x="2"
       y="57" />
    <rect
       style="opacity:1;fill:url(#radialGradient4230);fill-opacity:1;stroke:none;stroke-width:1;stroke-miterlimit:4;stroke-dasharray:none;stroke-opacity:0.25098039"
       id="rect4222"
       width="8"
       height="5"
       x="54"
       y="57" />
  </g>
  <g
     inkscape:label="Layer 1"
     inkscape:groupmode="layer"
     id="layer1"
     transform="translate(0,-1004.3622)"
     style="display:none">
    <rect
       style="opacity:1;fill:#68b723;fill-opacity:1;stroke:none;stroke-width:1;stroke-miterlimit:4;stroke-dasharray:none;stroke-opacity:1"
       id="rect4155"
       width="56"
       height="56"
       x="4"
       y="992.36218"
       rx="4"
       ry="4" />
    <rect
       ry="3.5"
       rx="3.5"
       y="992.85339"
       x="4.5"
       height="55"
       width="55"
       id="rect4157"
       style="opacity:1;fill:none;fill-opacity:1;stroke:url(#linearGradient4193);stroke-width:1;stroke-miterlimit:4;stroke-dasharray:none;stroke-opacity:1" />
    <rect
       style="opacity:1;fill:none;fill-opacity:1;stroke:url(#linearGradient4197);stroke-width:1;stroke-miterlimit:4;stroke-dasharray:none;stroke-opacity:1"
       id="rect4195"
       width="53"
       height="53"
       x="5.5"
       y="993.86218"
       rx="2.5"
       ry="2.5" />
    <rect
       ry="2"
       rx="2"
       y="994.36218"
       x="6"
       height="52"
       width="52"
       id="rect4205"
       style="opacity:1;fill:url(#linearGradient4213);fill-opacity:1;stroke:none;stroke-width:1;stroke-miterlimit:4;stroke-dasharray:none;stroke-opacity:1" />
  </g>
  <g
     inkscape:groupmode="layer"
     id="layer2"
     inkscape:label="Icon"
     style="display:none"
     transform="translate(0,-16)">
    <path
       sodipodi:nodetypes="ccccc"
       inkscape:connector-curvature="0"
       id="path4806"
       d="M 27,12 16,52 H 48 L 37,12 Z"
       style="display:inline;fill:none;fill-opacity:1;fill-rule:evenodd;stroke:#ffffff;stroke-width:4;stroke-linecap:round;stroke-linejoin:round;stroke-miterlimit:4;stroke-dasharray:none;stroke-opacity:1;filter:url(#filter4187)" />
    <rect
       inkscape:transform-center-x="-9.4999991"
       transform="rotate(30)"
       inkscape:transform-center-y="-16.454483"
       ry="1.9000005"
       y="-11.349068"
       x="49.226818"
       height="38"
       width="4.000001"
       id="rect4808"
       style="display:inline;fill:#ffffff;fill-opacity:1;stroke:none" />
  </g>
  <g
     inkscape:groupmode="layer"
     id="layer4"
     inkscape:label="Spot"
     style="display:none"
     transform="translate(0,-16)">
    <rect
       style="opacity:1;fill:url(#radialGradient4209);fill-opacity:1;fill-rule:evenodd;stroke:none;stroke-width:1px;stroke-linecap:butt;stroke-linejoin:miter;stroke-opacity:1"
       id="rect3384"
       width="56"
       height="20"
       x="4"
       y="4"
       ry="4" />
  </g>
  <g
     inkscape:groupmode="layer"
     id="layer6"
     inkscape:label="New 1"
     transform="translate(0,-16)" />
  <g
     inkscape:groupmode="layer"
     id="layer5"
     inkscape:label="New"
     transform="translate(0,-16)">
    <path
       style="color:#000000;font-style:normal;font-variant:normal;font-weight:normal;font-stretch:normal;font-size:medium;line-height:normal;font-family:sans-serif;font-variant-ligatures:normal;font-variant-position:normal;font-variant-caps:normal;font-variant-numeric:normal;font-variant-alternates:normal;font-feature-settings:normal;text-indent:0;text-align:start;text-decoration:none;text-decoration-line:none;text-decoration-style:solid;text-decoration-color:#000000;letter-spacing:normal;word-spacing:normal;text-transform:none;writing-mode:lr-tb;direction:ltr;text-orientation:mixed;dominant-baseline:auto;baseline-shift:baseline;text-anchor:start;white-space:normal;shape-padding:0;clip-rule:nonzero;display:inline;overflow:visible;visibility:visible;opacity:1;isolation:auto;mix-blend-mode:normal;color-interpolation:sRGB;color-interpolation-filters:linearRGB;solid-color:#000000;solid-opacity:1;vector-effect:none;fill:none;fill-opacity:1;fill-rule:nonzero;stroke:#7a4300;stroke-width:0.71573597;stroke-linecap:round;stroke-linejoin:miter;stroke-miterlimit:4;stroke-dasharray:none;stroke-dashoffset:0;stroke-opacity:0.6;color-rendering:auto;image-rendering:auto;shape-rendering:auto;text-rendering:auto;enable-background:accumulate"
       d="m 35.28558,37.568441 c 1.106324,0.144911 2.191176,-0.39007 2.749712,-1.355984 0.557753,-0.966718 0.478878,-2.174111 -0.199902,-3.060051 l 1.992038,-3.450071 c 0.26989,-0.452665 0.165595,-1.034927 -0.244636,-1.36577 -0.176408,-0.360122 -0.541203,-0.589606 -0.9422,-0.592718 -0.386535,-0.0031 -0.743986,0.204881 -0.932413,0.542393 l -1.992039,3.450071 c -0.550073,-0.07232 -1.094901,0.02347 -1.572419,0.256768"
       id="path1378"
       inkscape:connector-curvature="0"
       sodipodi:nodetypes="ccccccccc" />
    <g
       transform="matrix(1.0005175,0,0,0.51123997,-0.01242019,38.979331)"
       style="opacity:0.6"
       id="g1289">
      <rect
         width="5"
         height="7"
         x="38"
         y="40"
         style="fill:url(#radialGradient3337-2-2);fill-opacity:1;stroke:none"
         id="rect1283" />
      <rect
         width="5"
         height="7"
         x="-10"
         y="-47"
         transform="scale(-1)"
         style="fill:url(#radialGradient3339-1-4);fill-opacity:1;stroke:none"
         id="rect1285" />
      <rect
         width="28"
         height="7"
         x="10"
         y="40"
         style="fill:url(#linearGradient4159);fill-opacity:1;stroke:none"
         id="rect1287" />
    </g>
    <g
       id="g883"
       transform="matrix(0.08332767,0,0,0.08332767,8.0597307,24)"
       style="fill:url(#linearGradient1489);fill-opacity:1">
		<path
   inkscape:connector-curvature="0"
   style="fill:url(#linearGradient1487);fill-opacity:1"
   d="M 360.718,434.29 H 35.399 L 94.899,24.54 C 96.948,10.45 109.019,0 123.259,0 h 149.6 c 14.24,0 26.32,10.45 28.36,24.54 z"
   id="path881" />

	</g>
    <path
       id="path889"
       d="m 28.579303,37.020783 c 0,0.690786 -0.559128,1.249914 -1.249915,1.249914 h -1.51573 v 12.621644 c 0,0.689954 -0.559962,1.249915 -1.249915,1.249915 -0.689953,0 -1.249915,-0.559961 -1.249915,-1.249915 v -8.98939 h -1.515731 c -0.689953,0 -1.249916,-0.559962 -1.249916,-1.249915 0,-0.690787 0.559963,-1.249916 1.249916,-1.249916 h 1.515731 v -4.764676 h -1.515731 c -0.689953,0 -1.249916,-0.559129 -1.249916,-1.249915 0,-0.689953 0.559963,-1.249915 1.249916,-1.249915 h 1.515731 v -4.708847 c 0,-0.689953 0.559962,-1.249916 1.249915,-1.249916 0.689953,0 1.249915,0.559963 1.249915,1.249916 v 1.077426 h 1.51573 c 0.690787,0 1.249915,0.559129 1.249915,1.249916 0,0.689953 -0.559128,1.249915 -1.249915,1.249915 h -1.51573 v 4.763844 h 1.51573 c 0.690787,0 1.249915,0.559961 1.249915,1.249915 z"
       style="fill:url(#linearGradient1039);fill-opacity:1;stroke-width:0.08332767"
       inkscape:connector-curvature="0" />
    <g
       id="g1158" />
    <path
       style="fill:#8b1e20;fill-opacity:1;stroke-width:0.08332767"
       d="m 24.563966,26.17936 c -0.689955,0 -1.249742,0.559789 -1.249742,1.249742 V 32.1387 h -1.516746 c -0.689954,0 -1.249742,0.55979 -1.249742,1.249742 0,0.350005 0.144462,0.665072 0.376042,0.891874 -0.04377,-0.127401 -0.07269,-0.261684 -0.07269,-0.403999 0,-0.689953 0.55979,-1.25114 1.249743,-1.25114 h 1.516745 v -4.708201 c 0,-0.689953 0.559789,-1.249742 1.249742,-1.249742 0.340333,0 0.648231,0.13698 0.873702,0.357868 -0.169014,-0.490233 -0.629646,-0.845742 -1.177051,-0.845742 z m 1.249692,2.327833 0.303399,0.487582 h 1.515347 c 0.340743,0 0.648332,0.135686 0.873701,0.356469 -0.168949,-0.490204 -0.629143,-0.844345 -1.177049,-0.844345 z m -2.49983,6.131251 3.96e-4,4.765256 h -1.516746 c -0.689954,0 -1.249742,0.558955 -1.249742,1.249742 0,0.349987 0.145388,0.664906 0.377439,0.891874 -0.04414,-0.127818 -0.07409,-0.262639 -0.07409,-0.405396 0,-0.690788 0.55979,-1.249743 1.249743,-1.249743 h 1.516745 V 35.12606 Z m 2.49983,1.132424 0.303399,0.487508 h 1.515347 c 0.341065,0 0.648276,0.13801 0.873701,0.359265 C 28.337884,36.126326 27.8779,35.7705 27.329056,35.7705 Z m -2.49983,6.132083 3.96e-4,8.988871 c 1.6e-5,0.34962 0.144416,0.666355 0.376041,0.893271 -0.0441,-0.12778 -0.07269,-0.26269 -0.07269,-0.405397 v -8.990035 z"
       id="path1025"
       inkscape:connector-curvature="0"
       sodipodi:nodetypes="sscsscsscsscsccscscccsscsscccccscsccscscc" />
    <path
       id="path903"
       d="M 39.442434,61.210807 H 9.6845371 c -0.526631,0 -0.9374365,-0.455802 -0.8824401,-0.9791 l 0.671621,-6.440396 c 0.1799881,-1.726549 1.634889,-3.038128 3.371438,-3.038128 h 7.238675 v -1.140755 c 0,-2.473083 2.006448,-4.479696 4.479696,-4.479696 2.473999,0 4.479696,2.005697 4.479696,4.479696 v 1.140755 h 7.238675 c 1.736549,0 3.191451,1.311579 3.371438,3.038128 l 0.671622,6.440396 c 0.05491,0.523298 -0.355893,0.9791 -0.882524,0.9791 z"
       style="fill:url(#linearGradient1015);fill-opacity:1;stroke-width:0.08332767"
       inkscape:connector-curvature="0" />
    <path
       style="fill:none;fill-opacity:1;stroke:url(#linearGradient1194);stroke-width:2;stroke-miterlimit:4;stroke-dasharray:none;stroke-opacity:1"
       d="m 22.353516,8 c -1.657854,0 -3.064186,1.2170306 -3.302735,2.857422 l -5.021484,34.583984 c -2.123795,0.298924 -3.82266,1.993369 -4.0507814,4.181641 l -0.9375,8.998047 c -0.076839,0.731132 0.4966325,1.36914 1.2324224,1.36914 h 41.576171 c 0.73579,0 1.309142,-0.638008 1.232422,-1.36914 l -0.9375,-8.998047 C 51.916411,47.434775 50.217545,45.74033 48.09375,45.441406 L 43.072266,10.857422 C 42.834764,9.2170306 41.427385,8 39.769531,8 Z"
       id="path1169"
       mask="url(#mask1184)"
       inkscape:connector-curvature="0"
       transform="matrix(0.71573597,0,0,0.71573597,2.3317678,18.274112)" />
    <g
       style="fill:url(#linearGradient1491);fill-opacity:1;stroke:#ae4b13;stroke-opacity:0.61142853"
       transform="matrix(0.08332767,0,0,0.08332767,8.0597307,24)"
       id="g1145">
		<path
   id="path1143"
   d="M 51.555528,323.02719 94.899,24.54 C 96.948,10.45 109.019,0 123.259,0 h 149.6 c 14.24,0 26.32,10.45 28.36,24.54 l 43.28046,298.05825"
   style="fill:none;fill-opacity:1;stroke:#ae4b13;stroke-width:8.5894146;stroke-miterlimit:4;stroke-dasharray:none;stroke-opacity:0.61142853"
   inkscape:connector-curvature="0"
   sodipodi:nodetypes="ccsscc" />

	</g>
    <g
       id="g913"
       transform="matrix(0.08332767,0,0,0.08332767,8.0597307,24)">
		<path
   inkscape:connector-curvature="0"
   style="fill:#dbdcf6"
   d="m 214.029,303.93 v 9.25 c 0,8.82 -7.15,15.97 -15.97,15.97 -8.82,0 -15.97,-7.15 -15.97,-15.97 v -9.25 c 0,-8.82 7.15,-15.97 15.97,-15.97 8.82,0 15.97,7.15 15.97,15.97 z"
   id="path911" />

	</g>
    <g
       id="g921"
       transform="matrix(0.08332767,0,0,0.08332767,8.0597307,24)">
		<path
   inkscape:connector-curvature="0"
   style="fill:#dbdcf6"
   d="m 290.678,383.27 c 0,8.81 -7.15,15.96 -15.97,15.96 h -153.3 c -8.82,0 -15.97,-7.15 -15.97,-15.96 0,-8.82 7.15,-15.97 15.97,-15.97 h 153.3 c 8.821,0 15.97,7.15 15.97,15.97 z"
   id="path919" />

	</g>
    <g
       transform="matrix(0.08332767,0,0,0.08332767,8.0597307,24)"
       id="g1047"
       style="fill:#a1a4e8;fill-opacity:1">
		<path
   style="fill:#a1a4e8;fill-opacity:1;stroke-width:0.11642237"
   d="m 22.136719,50.761719 c -1.026846,0 -1.859375,0.832529 -1.859375,1.859375 0,0.702047 0.395315,1.307045 0.970703,1.623047 -0.289031,-0.327541 -0.470703,-0.751891 -0.470703,-1.222657 0,-1.026846 0.83253,-1.859375 1.859375,-1.859375 h 17.847656 c 0.323266,0 0.62387,0.08931 0.888672,0.234375 -0.340662,-0.385881 -0.833388,-0.634765 -1.388672,-0.634765 z"
   transform="matrix(8.5894146,0,0,8.5894146,-68.740219,-68.715316)"
   id="path1045"
   inkscape:connector-curvature="0" />

	</g>
    <g
       transform="matrix(0.08332767,0,0,0.08332767,8.0597307,24)"
       id="g1061">
		<path
   style="fill:#b9b9d5;fill-opacity:1;stroke-width:0.11642237"
   d="m 31.060547,41.525391 c -1.026845,0 -1.859375,0.832529 -1.859375,1.859375 v 1.076172 c 0,0.688508 0.379387,1.282149 0.935547,1.603515 -0.330138,-0.335569 -0.535157,-0.794802 -0.535157,-1.302734 v -1.078125 c 0,-1.026845 0.832531,-1.859375 1.859376,-1.859375 0.338113,0 0.650651,0.09813 0.923828,0.255859 -0.337137,-0.341696 -0.806277,-0.554687 -1.324219,-0.554687 z"
   transform="matrix(8.5894146,0,0,8.5894146,-68.740219,-68.715316)"
   id="path1059"
   inkscape:connector-curvature="0" />

	</g>
    <g
       id="g1105" />
    <path
       inkscape:connector-curvature="0"
       style="fill:none;fill-opacity:1;stroke:#7d1a1f;stroke-width:0.71573597;stroke-miterlimit:4;stroke-dasharray:none;stroke-opacity:0.62857145"
       d="m 36.741123,50.784119 c 1.527774,0.207399 2.74835,1.43532 2.912213,3.007192 l 0.671622,6.440396 c 0.05491,0.523298 -0.355893,0.9791 -0.882524,0.9791 H 9.6845371 c -0.526631,0 -0.9374365,-0.455802 -0.8824401,-0.9791 l 0.671621,-6.440396 c 0.1642118,-1.575215 1.389636,-2.805016 2.921966,-3.008501"
       id="path1141"
       sodipodi:nodetypes="cccssccc" />
    <path
       style="color:#000000;font-style:normal;font-variant:normal;font-weight:normal;font-stretch:normal;font-size:medium;line-height:normal;font-family:sans-serif;font-variant-ligatures:normal;font-variant-position:normal;font-variant-caps:normal;font-variant-numeric:normal;font-variant-alternates:normal;font-feature-settings:normal;text-indent:0;text-align:start;text-decoration:none;text-decoration-line:none;text-decoration-style:solid;text-decoration-color:#000000;letter-spacing:normal;word-spacing:normal;text-transform:none;writing-mode:lr-tb;direction:ltr;text-orientation:mixed;dominant-baseline:auto;baseline-shift:baseline;text-anchor:start;white-space:normal;shape-padding:0;clip-rule:nonzero;display:inline;overflow:visible;visibility:visible;opacity:1;isolation:auto;mix-blend-mode:normal;color-interpolation:sRGB;color-interpolation-filters:linearRGB;solid-color:#000000;solid-opacity:1;vector-effect:none;fill:#a45a00;fill-opacity:1;fill-rule:nonzero;stroke:none;stroke-width:2.11641765;stroke-linecap:round;stroke-linejoin:miter;stroke-miterlimit:4;stroke-dasharray:none;stroke-dashoffset:0;stroke-opacity:1;color-rendering:auto;image-rendering:auto;shape-rendering:auto;text-rendering:auto;enable-background:accumulate"
       d="m 38.927963,28.102901 a 1.0583147,1.0583147 0 0 0 -0.932414,0.542392 l -1.992038,3.450072 a 2.7619642,2.7619642 0 0 0 -2.751111,1.355984 2.7619642,2.7619642 0 0 0 0.201301,3.061448 l -5.73148,9.925246 c 0.584233,0.581409 1.005648,1.323886 1.199418,2.154197 l 6.364738,-11.022613 a 2.7619642,2.7619642 0 0 0 2.749712,-1.355985 2.7619642,2.7619642 0 0 0 -0.199903,-3.060051 l 1.992039,-3.450071 a 1.0583147,1.0583147 0 0 0 -0.900262,-1.600619 z"
       id="path1129"
       inkscape:connector-curvature="0" />
    <path
       inkscape:connector-curvature="0"
       id="path1074"
       d="m 38.641389,27.745033 a 1.0583147,1.0583147 0 0 0 -0.932414,0.542392 l -1.992039,3.450072 a 2.7619642,2.7619642 0 0 0 -2.751109,1.355984 2.7619642,2.7619642 0 0 0 0.2013,3.061448 l -5.767825,9.98955 c 0.603948,0.494407 1.071297,1.14537 1.35179,1.888592 l 6.248711,-10.821312 a 2.7619642,2.7619642 0 0 0 2.749712,-1.355985 2.7619642,2.7619642 0 0 0 -0.199903,-3.060051 l 1.992038,-3.450071 a 1.0583147,1.0583147 0 0 0 -0.900261,-1.600619 z"
       style="color:#000000;font-style:normal;font-variant:normal;font-weight:normal;font-stretch:normal;font-size:medium;line-height:normal;font-family:sans-serif;font-variant-ligatures:normal;font-variant-position:normal;font-variant-caps:normal;font-variant-numeric:normal;font-variant-alternates:normal;font-feature-settings:normal;text-indent:0;text-align:start;text-decoration:none;text-decoration-line:none;text-decoration-style:solid;text-decoration-color:#000000;letter-spacing:normal;word-spacing:normal;text-transform:none;writing-mode:lr-tb;direction:ltr;text-orientation:mixed;dominant-baseline:auto;baseline-shift:baseline;text-anchor:start;white-space:normal;shape-padding:0;clip-rule:nonzero;display:inline;overflow:visible;visibility:visible;opacity:1;isolation:auto;mix-blend-mode:normal;color-interpolation:sRGB;color-interpolation-filters:linearRGB;solid-color:#000000;solid-opacity:1;vector-effect:none;fill:#ecba3d;fill-opacity:1;fill-rule:nonzero;stroke:none;stroke-width:2.11641765;stroke-linecap:round;stroke-linejoin:miter;stroke-miterlimit:4;stroke-dasharray:none;stroke-dashoffset:0;stroke-opacity:1;color-rendering:auto;image-rendering:auto;shape-rendering:auto;text-rendering:auto;enable-background:accumulate" />
    <g
       id="g1236"
       transform="matrix(0.71573597,0,0,0.71573597,2.3317678,18.274112)">
      <circle
         transform="rotate(30)"
         style="opacity:1;fill:#cfcfcf;fill-opacity:1;fill-rule:evenodd;stroke:none;stroke-width:0.99403161;stroke-linecap:round;stroke-linejoin:round;stroke-miterlimit:4;stroke-dasharray:none;stroke-opacity:0.75686275;paint-order:markers fill stroke"
         id="circle1080"
         cx="51.278812"
         cy="-3.4692421"
         r="1.5117563" />
      <path
         id="circle1086"
         d="m 46.89906,21.326068 a 1.5117563,1.5117563 0 0 0 -2.064573,0.553201 1.5117563,1.5117563 0 0 0 -0.08446,1.337465 1.5117563,1.5117563 0 0 1 0.189361,-0.945975 1.5117563,1.5117563 0 0 1 2.064573,-0.5532 1.5117563,1.5117563 0 0 1 0.638688,0.730933 1.5117563,1.5117563 0 0 0 -0.743587,-1.122424 z"
         style="opacity:1;fill:#9a9a9a;fill-opacity:1;fill-rule:evenodd;stroke:none;stroke-width:0.99403161;stroke-linecap:round;stroke-linejoin:round;stroke-miterlimit:4;stroke-dasharray:none;stroke-opacity:0.75686275;paint-order:markers fill stroke"
         inkscape:connector-curvature="0" />
    </g>
  </g>
</svg>
