<?xml version="1.0" encoding="UTF-8" standalone="no"?>
<!-- Created with Inkscape (http://www.inkscape.org/) -->

<svg
   xmlns:dc="http://purl.org/dc/elements/1.1/"
   xmlns:cc="http://creativecommons.org/ns#"
   xmlns:rdf="http://www.w3.org/1999/02/22-rdf-syntax-ns#"
   xmlns:svg="http://www.w3.org/2000/svg"
   xmlns="http://www.w3.org/2000/svg"
   xmlns:xlink="http://www.w3.org/1999/xlink"
   xmlns:sodipodi="http://sodipodi.sourceforge.net/DTD/sodipodi-0.dtd"
   xmlns:inkscape="http://www.inkscape.org/namespaces/inkscape"
   width="32"
   height="32"
   viewBox="0 0 32 32"
   id="svg2"
   version="1.1"
   inkscape:version="0.92.4 5da689c313, 2019-01-14"
   sodipodi:docname="com.github.artemanufrij.metronome.svg">
  <defs
     id="defs4">
    <linearGradient
       inkscape:collect="always"
       id="linearGradient967">
      <stop
         style="stop-color:#a2a3a5;stop-opacity:1"
         offset="0"
         id="stop963" />
      <stop
         style="stop-color:#6a6c73;stop-opacity:1"
         offset="1"
         id="stop965" />
    </linearGradient>
    <linearGradient
       id="linearGradient1001-4"
       inkscape:collect="always">
      <stop
         id="stop954"
         offset="0"
         style="stop-color:#51535c;stop-opacity:1" />
      <stop
         style="stop-color:#73757b;stop-opacity:1;"
         offset="1"
         id="stop961" />
    </linearGradient>
    <linearGradient
       id="linearGradient1009"
       inkscape:collect="always">
      <stop
         id="stop942"
         offset="0"
         style="stop-color:#836b59;stop-opacity:1" />
      <stop
         id="stop944"
         offset="1"
         style="stop-color:#6b4f41;stop-opacity:0.93641621" />
    </linearGradient>
    <linearGradient
       inkscape:collect="always"
       id="linearGradient1192">
      <stop
         style="stop-color:#d9d9d9;stop-opacity:0.30857143"
         offset="0"
         id="stop1188" />
      <stop
         id="stop1206"
         offset="0.22236782"
         style="stop-color:#dcdcdc;stop-opacity:0.09714286" />
      <stop
         id="stop1204"
         offset="0.72553766"
         style="stop-color:#ececec;stop-opacity:0.08" />
      <stop
         style="stop-color:#ffffff;stop-opacity:0.53142858"
         offset="1"
         id="stop1190" />
    </linearGradient>
    <linearGradient
       inkscape:collect="always"
       id="linearGradient4224">
      <stop
         style="stop-color:#000000;stop-opacity:0.6"
         offset="0"
         id="stop4226" />
      <stop
         style="stop-color:#000000;stop-opacity:0;"
         offset="1"
         id="stop4228" />
    </linearGradient>
    <linearGradient
       inkscape:collect="always"
       id="linearGradient4202">
      <stop
         style="stop-color:#000000;stop-opacity:0.6"
         offset="0"
         id="stop4204" />
      <stop
         style="stop-color:#000000;stop-opacity:0;"
         offset="1"
         id="stop4206" />
    </linearGradient>
    <linearGradient
       inkscape:collect="always"
       id="linearGradient4189">
      <stop
         style="stop-color:#000000;stop-opacity:0"
         offset="0"
         id="stop4192" />
      <stop
         id="stop4198"
         offset="0.5"
         style="stop-color:#000000;stop-opacity:0.6" />
      <stop
         style="stop-color:#000000;stop-opacity:0;"
         offset="1"
         id="stop4194" />
    </linearGradient>
    <linearGradient
       inkscape:collect="always"
       id="linearGradient4207">
      <stop
         style="stop-color:#000000;stop-opacity:0.1254902"
         offset="0"
         id="stop4209" />
      <stop
         style="stop-color:#000000;stop-opacity:0"
         offset="1"
         id="stop4211" />
    </linearGradient>
    <linearGradient
       id="linearGradient4199"
       inkscape:collect="always">
      <stop
         id="stop4201"
         offset="0"
         style="stop-color:#000000;stop-opacity:0.25098041" />
      <stop
         id="stop4203"
         offset="1"
         style="stop-color:#ffffff;stop-opacity:0.50196081" />
    </linearGradient>
    <linearGradient
       inkscape:collect="always"
       id="linearGradient4187">
      <stop
         style="stop-color:#000000;stop-opacity:0.43921569"
         offset="0"
         id="stop4189" />
      <stop
         style="stop-color:#000000;stop-opacity:0.25098041"
         offset="1"
         id="stop4191" />
    </linearGradient>
    <linearGradient
       inkscape:collect="always"
       xlink:href="#linearGradient4187"
       id="linearGradient4193"
       x1="32"
       y1="1048"
       x2="32"
       y2="993"
       gradientUnits="userSpaceOnUse" />
    <linearGradient
       inkscape:collect="always"
       xlink:href="#linearGradient4199"
       id="linearGradient4197"
       gradientUnits="userSpaceOnUse"
       x1="32"
       y1="1030"
       x2="32"
       y2="993"
       gradientTransform="translate(0,1.0087664)" />
    <linearGradient
       inkscape:collect="always"
       xlink:href="#linearGradient4207"
       id="linearGradient4213"
       x1="32"
       y1="1046"
       x2="32"
       y2="993"
       gradientUnits="userSpaceOnUse" />
    <filter
       style="color-interpolation-filters:sRGB"
       inkscape:label="Drop Shadow"
       id="filter4441">
      <feFlood
         flood-opacity="0.498039"
         flood-color="rgb(0,0,0)"
         result="flood"
         id="feFlood4443" />
      <feComposite
         in="flood"
         in2="SourceGraphic"
         operator="in"
         result="composite1"
         id="feComposite4445" />
      <feGaussianBlur
         in="composite1"
         stdDeviation="1"
         result="blur"
         id="feGaussianBlur4447" />
      <feOffset
         dx="1.38778e-16"
         dy="1"
         result="offset"
         id="feOffset4449" />
      <feComposite
         in="SourceGraphic"
         in2="offset"
         operator="over"
         result="composite2"
         id="feComposite4451" />
    </filter>
    <filter
       style="color-interpolation-filters:sRGB"
       inkscape:label="Drop Shadow"
       id="filter4175">
      <feFlood
         flood-opacity="0.498039"
         flood-color="rgb(0,0,0)"
         result="flood"
         id="feFlood4177" />
      <feComposite
         in="flood"
         in2="SourceGraphic"
         operator="in"
         result="composite1"
         id="feComposite4179" />
      <feGaussianBlur
         in="composite1"
         stdDeviation="1"
         result="blur"
         id="feGaussianBlur4181" />
      <feOffset
         dx="1.38778e-16"
         dy="1"
         result="offset"
         id="feOffset4183" />
      <feComposite
         in="SourceGraphic"
         in2="offset"
         operator="over"
         result="composite2"
         id="feComposite4185" />
    </filter>
    <filter
       style="color-interpolation-filters:sRGB"
       inkscape:label="Drop Shadow"
       id="filter4187">
      <feFlood
         flood-opacity="0.498039"
         flood-color="rgb(0,0,0)"
         result="flood"
         id="feFlood4189" />
      <feComposite
         in="flood"
         in2="SourceGraphic"
         operator="in"
         result="composite1"
         id="feComposite4191" />
      <feGaussianBlur
         in="composite1"
         stdDeviation="1"
         result="blur"
         id="feGaussianBlur4193" />
      <feOffset
         dx="1.38778e-16"
         dy="1"
         result="offset"
         id="feOffset4195" />
      <feComposite
         in="SourceGraphic"
         in2="offset"
         operator="over"
         result="composite2"
         id="feComposite4197" />
    </filter>
    <linearGradient
       inkscape:collect="always"
       xlink:href="#linearGradient4189"
       id="linearGradient4196"
       x1="32"
       y1="58"
       x2="32"
       y2="62"
       gradientUnits="userSpaceOnUse"
       gradientTransform="matrix(0.95652174,0,0,1.25,1.3913043,-15.5)" />
    <radialGradient
       inkscape:collect="always"
       xlink:href="#linearGradient4202"
       id="radialGradient4208"
       cx="9"
       cy="60"
       fx="9"
       fy="60"
       r="4"
       gradientTransform="matrix(-2,0,0,-0.625,28,97)"
       gradientUnits="userSpaceOnUse" />
    <radialGradient
       inkscape:collect="always"
       xlink:href="#linearGradient4224"
       id="radialGradient4230"
       cx="56"
       cy="60"
       fx="56"
       fy="60"
       r="3"
       gradientTransform="matrix(2.6666666,0,0,0.83333334,-95.333334,9.5)"
       gradientUnits="userSpaceOnUse" />
    <radialGradient
       inkscape:collect="always"
       xlink:href="#linearGradient4203"
       id="radialGradient4209"
       cx="32"
       cy="-7"
       fx="32"
       fy="-7"
       r="28"
       gradientTransform="matrix(1,0,0,0.71428572,-9.9121094e-7,9)"
       gradientUnits="userSpaceOnUse" />
    <linearGradient
       inkscape:collect="always"
       id="linearGradient4203">
      <stop
         style="stop-color:#ffffff;stop-opacity:0.4"
         offset="0"
         id="stop4205" />
      <stop
         style="stop-color:#ffffff;stop-opacity:0"
         offset="1"
         id="stop4207" />
    </linearGradient>
    <linearGradient
       inkscape:collect="always"
       xlink:href="#linearGradient1001-4"
       id="linearGradient1015"
       gradientUnits="userSpaceOnUse"
       x1="197.56348"
       y1="434.29001"
       x2="201.01111"
       y2="217.70282"
       gradientTransform="matrix(0.05821118,0,0,0.05821118,4.0014464,36.000003)" />
    <mask
       maskUnits="userSpaceOnUse"
       id="mask1184">
      <path
         id="path1186"
         d="m 22.353516,8 c -1.657854,0 -3.064186,1.2170306 -3.302735,2.857422 l -5.021484,34.583984 c -2.123795,0.298924 -3.82266,1.993369 -4.0507814,4.181641 l -0.9375,8.998047 c -0.076839,0.731132 0.4966325,1.36914 1.2324224,1.36914 h 41.576171 c 0.73579,0 1.309142,-0.638008 1.232422,-1.36914 l -0.9375,-8.998047 C 51.916411,47.434775 50.217545,45.74033 48.09375,45.441406 L 43.072266,10.857422 C 42.834764,9.2170306 41.427385,8 39.769531,8 Z"
         style="fill:#fef6ef;fill-opacity:1;stroke:none;stroke-width:0.11642237;stroke-opacity:1"
         inkscape:connector-curvature="0" />
    </mask>
    <linearGradient
       inkscape:collect="always"
       xlink:href="#linearGradient1192"
       id="linearGradient1194"
       x1="31.034418"
       y1="58.561069"
       x2="30.83861"
       y2="8"
       gradientUnits="userSpaceOnUse" />
    <linearGradient
       id="linearGradient4170">
      <stop
         id="stop1245"
         offset="0"
         style="stop-color:#575d5e;stop-opacity:1" />
      <stop
         id="stop1247"
         offset="1"
         style="stop-color:#292d2e;stop-opacity:1" />
    </linearGradient>
    <linearGradient
       xlink:href="#linearGradient3924-2-2-5-8"
       gradientUnits="userSpaceOnUse"
       gradientTransform="matrix(1.4324324,0,0,1.4362832,59.562469,-7.4574321)"
       y2="43"
       y1="5"
       x2="24"
       x1="24"
       id="linearGradient3180" />
    <linearGradient
       id="linearGradient3924-2-2-5-8">
      <stop
         id="stop1251"
         style="stop-color:#ffffff;stop-opacity:1"
         offset="0" />
      <stop
         id="stop1253"
         style="stop-color:#ffffff;stop-opacity:0.23529412"
         offset=".063" />
      <stop
         id="stop1255"
         style="stop-color:#ffffff;stop-opacity:0.15686275"
         offset=".951" />
      <stop
         id="stop1257"
         style="stop-color:#ffffff;stop-opacity:0.39215687"
         offset="1" />
    </linearGradient>
    <radialGradient
       xlink:href="#linearGradient3688-166-749-4-0-3-8"
       gradientUnits="userSpaceOnUse"
       gradientTransform="matrix(2.003784,0,0,1.4,27.98813,-17.4)"
       fy="43.5"
       fx="4.993"
       r="2.5"
       cy="43.5"
       cx="4.993"
       id="radialGradient3337-2-2" />
    <linearGradient
       id="linearGradient3688-166-749-4-0-3-8">
      <stop
         id="stop1261"
         style="stop-color:#181818;stop-opacity:1"
         offset="0" />
      <stop
         id="stop1263"
         style="stop-color:#181818;stop-opacity:0"
         offset="1" />
    </linearGradient>
    <radialGradient
       xlink:href="#linearGradient3688-166-749-4-0-3-8"
       gradientUnits="userSpaceOnUse"
       gradientTransform="matrix(2.003784,0,0,1.4,-20.01187,-104.4)"
       fy="43.5"
       fx="4.993"
       r="2.5"
       cy="43.5"
       cx="4.993"
       id="radialGradient3339-1-4" />
    <linearGradient
       id="linearGradient3702-501-757-8-4-1-1">
      <stop
         id="stop1272"
         style="stop-color:#181818;stop-opacity:0"
         offset="0" />
      <stop
         id="stop1274"
         style="stop-color:#181818;stop-opacity:1"
         offset=".5" />
      <stop
         id="stop1276"
         style="stop-color:#181818;stop-opacity:0"
         offset="1" />
    </linearGradient>
    <linearGradient
       xlink:href="#linearGradient3702-501-757-8-4-1-1"
       gradientUnits="userSpaceOnUse"
       y2="39.999001"
       y1="47.028"
       x2="25.058001"
       x1="25.058001"
       id="linearGradient4159" />
    <linearGradient
       xlink:href="#linearGradient4170"
       gradientUnits="userSpaceOnUse"
       y2="59"
       y1="5"
       x2="32"
       x1="32"
       id="linearGradient4166"
       gradientTransform="translate(61.94085,-4.986654)" />
    <linearGradient
       inkscape:collect="always"
       xlink:href="#linearGradient1009"
       id="linearGradient947"
       gradientUnits="userSpaceOnUse"
       x1="14.868495"
       y1="180.15988"
       x2="330.28186"
       y2="224.68636" />
    <linearGradient
       inkscape:collect="always"
       xlink:href="#linearGradient967"
       id="linearGradient969"
       x1="51.130859"
       y1="13.732422"
       x2="35.942432"
       y2="39.870773"
       gradientUnits="userSpaceOnUse"
       gradientTransform="matrix(0.49999995,0,0,0.49999995,-2.8125003e-6,32.000003)" />
    <linearGradient
       inkscape:collect="always"
       xlink:href="#linearGradient1009"
       id="linearGradient1199"
       gradientUnits="userSpaceOnUse"
       x1="14.868495"
       y1="180.15988"
       x2="330.28186"
       y2="224.68636" />
  </defs>
  <sodipodi:namedview
     id="base"
     pagecolor="#ffffff"
     bordercolor="#666666"
     borderopacity="1.0"
     inkscape:pageopacity="0.0"
     inkscape:pageshadow="2"
     inkscape:zoom="11.313708"
     inkscape:cx="-6.0434416"
     inkscape:cy="9.3366337"
     inkscape:document-units="px"
     inkscape:current-layer="layer5"
     showgrid="true"
     inkscape:window-width="2560"
     inkscape:window-height="1386"
     inkscape:window-x="0"
     inkscape:window-y="28"
     inkscape:window-maximized="1"
     units="px"
     showguides="true"
     inkscape:guide-bbox="true"
     inkscape:snap-center="true"
     inkscape:snap-grids="false"
     inkscape:object-paths="true"
     inkscape:snap-intersection-paths="true"
     inkscape:snap-page="true">
    <inkscape:grid
       type="xygrid"
       id="grid964" />
    <sodipodi:guide
       position="65.000001,4.0000001"
       orientation="0,1"
       id="guide966"
       inkscape:locked="false" />
    <sodipodi:guide
       position="66.000001,56.000001"
       orientation="0,1"
       id="guide968"
       inkscape:locked="false" />
  </sodipodi:namedview>
  <metadata
     id="metadata7">
    <rdf:RDF>
      <cc:Work
         rdf:about="">
        <dc:format>image/svg+xml</dc:format>
        <dc:type
           rdf:resource="http://purl.org/dc/dcmitype/StillImage" />
        <dc:title />
      </cc:Work>
    </rdf:RDF>
  </metadata>
  <g
     inkscape:groupmode="layer"
     id="layer6"
     inkscape:label="Shadow 1"
     style="display:none"
     transform="translate(0,-32)">
    <rect
       style="opacity:1;fill:none;fill-opacity:1;fill-rule:evenodd;stroke:#5366e6;stroke-width:0;stroke-linecap:round;stroke-linejoin:round;stroke-miterlimit:4;stroke-dasharray:none;stroke-dashoffset:0;stroke-opacity:1;paint-order:markers fill stroke"
       id="rect1193"
       width="29.499996"
       height="25.812498"
       x="2.4999971"
       y="32.000004" />
    <rect
       style="opacity:1;fill:#787a80;fill-opacity:0.49710987;fill-rule:evenodd;stroke:none;stroke-width:0;stroke-linecap:round;stroke-linejoin:round;stroke-miterlimit:4;stroke-dasharray:none;stroke-dashoffset:0;stroke-opacity:0.82080922;paint-order:markers fill stroke"
       id="rect1195"
       width="31.999996"
       height="31.999996"
       x="-5.6250001e-06"
       y="32.000004" />
  </g>
  <g
     inkscape:groupmode="layer"
     id="layer3"
     inkscape:label="Shadow"
     style="display:none"
     transform="translate(0,-32)">
    <rect
       style="opacity:1;fill:url(#linearGradient4196);fill-opacity:1;stroke:none;stroke-width:1;stroke-miterlimit:4;stroke-dasharray:none;stroke-opacity:0.25098039"
       id="rect4187"
       width="44"
       height="5"
       x="10"
       y="57"
       ry="0" />
    <rect
       style="opacity:1;fill:url(#radialGradient4208);fill-opacity:1;stroke:none;stroke-width:1;stroke-miterlimit:4;stroke-dasharray:none;stroke-opacity:0.25098039"
       id="rect4200"
       width="8"
       height="5"
       x="2"
       y="57" />
    <rect
       style="opacity:1;fill:url(#radialGradient4230);fill-opacity:1;stroke:none;stroke-width:1;stroke-miterlimit:4;stroke-dasharray:none;stroke-opacity:0.25098039"
       id="rect4222"
       width="8"
       height="5"
       x="54"
       y="57" />
  </g>
  <g
     inkscape:label="Layer 1"
     inkscape:groupmode="layer"
     id="layer1"
     transform="translate(0,-1020.3622)"
     style="display:none">
    <rect
       style="opacity:1;fill:#68b723;fill-opacity:1;stroke:none;stroke-width:1;stroke-miterlimit:4;stroke-dasharray:none;stroke-opacity:1"
       id="rect4155"
       width="56"
       height="56"
       x="4"
       y="992.36218"
       rx="4"
       ry="4" />
    <rect
       ry="3.5"
       rx="3.5"
       y="992.85339"
       x="4.5"
       height="55"
       width="55"
       id="rect4157"
       style="opacity:1;fill:none;fill-opacity:1;stroke:url(#linearGradient4193);stroke-width:1;stroke-miterlimit:4;stroke-dasharray:none;stroke-opacity:1" />
    <rect
       style="opacity:1;fill:none;fill-opacity:1;stroke:url(#linearGradient4197);stroke-width:1;stroke-miterlimit:4;stroke-dasharray:none;stroke-opacity:1"
       id="rect4195"
       width="53"
       height="53"
       x="5.5"
       y="993.86218"
       rx="2.5"
       ry="2.5" />
    <rect
       ry="2"
       rx="2"
       y="994.36218"
       x="6"
       height="52"
       width="52"
       id="rect4205"
       style="opacity:1;fill:url(#linearGradient4213);fill-opacity:1;stroke:none;stroke-width:1;stroke-miterlimit:4;stroke-dasharray:none;stroke-opacity:1" />
  </g>
  <g
     inkscape:groupmode="layer"
     id="layer2"
     inkscape:label="Icon"
     style="display:none"
     transform="translate(0,-32)">
    <path
       sodipodi:nodetypes="ccccc"
       inkscape:connector-curvature="0"
       id="path4806"
       d="M 27,12 16,52 H 48 L 37,12 Z"
       style="display:inline;fill:none;fill-opacity:1;fill-rule:evenodd;stroke:#ffffff;stroke-width:4;stroke-linecap:round;stroke-linejoin:round;stroke-miterlimit:4;stroke-dasharray:none;stroke-opacity:1;filter:url(#filter4187)" />
    <rect
       inkscape:transform-center-x="-9.4999991"
       transform="rotate(30)"
       inkscape:transform-center-y="-16.454483"
       ry="1.9000005"
       y="-11.349068"
       x="49.226818"
       height="38"
       width="4.000001"
       id="rect4808"
       style="display:inline;fill:#ffffff;fill-opacity:1;stroke:none" />
  </g>
  <g
     inkscape:groupmode="layer"
     id="layer4"
     inkscape:label="Spot"
     style="display:none"
     transform="translate(0,-32)">
    <rect
       style="opacity:1;fill:url(#radialGradient4209);fill-opacity:1;fill-rule:evenodd;stroke:none;stroke-width:1px;stroke-linecap:butt;stroke-linejoin:miter;stroke-opacity:1"
       id="rect3384"
       width="56"
       height="20"
       x="4"
       y="4"
       ry="4" />
  </g>
  <g
     inkscape:groupmode="layer"
     id="layer5"
     inkscape:label="New"
     style="display:inline"
     transform="translate(0,-32)">
    <path
       style="color:#000000;font-style:normal;font-variant:normal;font-weight:normal;font-stretch:normal;font-size:medium;line-height:normal;font-family:sans-serif;font-variant-ligatures:normal;font-variant-position:normal;font-variant-caps:normal;font-variant-numeric:normal;font-variant-alternates:normal;font-feature-settings:normal;text-indent:0;text-align:start;text-decoration:none;text-decoration-line:none;text-decoration-style:solid;text-decoration-color:#000000;letter-spacing:normal;word-spacing:normal;text-transform:none;writing-mode:lr-tb;direction:ltr;text-orientation:mixed;dominant-baseline:auto;baseline-shift:baseline;text-anchor:start;white-space:normal;shape-padding:0;clip-rule:nonzero;display:inline;overflow:visible;visibility:visible;opacity:1;isolation:auto;mix-blend-mode:normal;color-interpolation:sRGB;color-interpolation-filters:linearRGB;solid-color:#000000;solid-opacity:1;vector-effect:none;fill:none;fill-opacity:1;fill-rule:nonzero;stroke:#5d5e60;stroke-width:0.69921261;stroke-linecap:round;stroke-linejoin:miter;stroke-miterlimit:4;stroke-dasharray:none;stroke-dashoffset:0;stroke-opacity:0.72832372;color-rendering:auto;image-rendering:auto;shape-rendering:auto;text-rendering:auto;enable-background:accumulate"
       d="m 23.020923,45.478666 c 0.772858,0.101232 1.530715,-0.272496 1.920898,-0.947266 0.389636,-0.675331 0.334535,-1.518794 -0.139648,-2.137695 l 1.391601,-2.410156 c 0.18854,-0.316223 0.115682,-0.722981 -0.170898,-0.954101 -0.123236,-0.251575 -0.378075,-0.411889 -0.658203,-0.414063 -0.270027,-0.0022 -0.519736,0.143127 -0.651368,0.378906 l -1.391601,2.410157 c -0.384271,-0.05052 -0.764878,0.01639 -1.098463,0.179373"
       id="path1378"
       inkscape:connector-curvature="0"
       sodipodi:nodetypes="ccccccccc" />
    <g
       transform="matrix(0.69894308,0,0,0.35714281,-1.6376093,46.464288)"
       style="opacity:0.6;stroke-width:2.00000024"
       id="g1289">
      <rect
         width="5"
         height="7"
         x="38"
         y="40"
         style="fill:url(#radialGradient3337-2-2);fill-opacity:1;stroke:none;stroke-width:2.00000024"
         id="rect1283" />
      <rect
         width="5"
         height="7"
         x="-10"
         y="-47"
         transform="scale(-1)"
         style="fill:url(#radialGradient3339-1-4);fill-opacity:1;stroke:none;stroke-width:2.00000024"
         id="rect1285" />
      <rect
         width="28"
         height="7"
         x="10"
         y="40"
         style="fill:url(#linearGradient4159);fill-opacity:1;stroke:none;stroke-width:2.00000024"
         id="rect1287" />
    </g>
    <g
       id="g883"
       transform="matrix(0.05821118,0,0,0.05821118,4.0014464,36.000003)"
       style="fill:url(#linearGradient947);fill-opacity:1;stroke-width:2.00000024">
      <path
         inkscape:connector-curvature="0"
         style="fill:url(#linearGradient1199);fill-opacity:1;stroke-width:2.00000024"
         d="M 360.718,434.29 H 35.399 L 94.899,24.54 C 96.948,10.45 109.019,0 123.259,0 h 149.6 c 14.24,0 26.32,10.45 28.36,24.54 z"
         id="path881" />
    </g>
    <path
       id="path889"
       d="m 18.336041,45.096082 c 0,0.48257 -0.390597,0.873167 -0.873167,0.873167 h -1.058861 v 8.817247 c 0,0.481989 -0.391179,0.873168 -0.873168,0.873168 -0.481989,0 -0.873168,-0.391179 -0.873168,-0.873168 v -6.279822 h -1.058861 c -0.481989,0 -0.873168,-0.391179 -0.873168,-0.873167 0,-0.482571 0.391179,-0.873168 0.873168,-0.873168 h 1.058861 v -3.328515 h -1.058861 c -0.481989,0 -0.873168,-0.390597 -0.873168,-0.873168 0,-0.481989 0.391179,-0.873167 0.873168,-0.873167 h 1.058861 v -3.289514 c 0,-0.481989 0.391179,-0.873168 0.873168,-0.873168 0.481989,0 0.873168,0.391179 0.873168,0.873168 v 0.75267 h 1.058861 c 0.48257,0 0.873167,0.390597 0.873167,0.873168 0,0.481989 -0.390597,0.873168 -0.873167,0.873168 h -1.058861 v 3.327933 h 1.058861 c 0.48257,0 0.873167,0.391179 0.873167,0.873168 z"
       style="fill:#3a1f1a;fill-opacity:1;stroke-width:0.11642237"
       inkscape:connector-curvature="0" />
    <g
       id="g1158" />
    <path
       style="fill:#53362b;fill-opacity:1;stroke-width:0.11642237"
       d="m 15.531001,37.522463 c -0.48199,0 -0.873047,0.391059 -0.873047,0.873047 v 3.290039 h -1.05957 c -0.48199,0 -0.873047,0.391058 -0.873047,0.873047 0,0.244507 0.100918,0.464606 0.262695,0.623046 -0.03058,-0.089 -0.05078,-0.182808 -0.05078,-0.282226 0,-0.481989 0.391058,-0.874024 0.873047,-0.874024 h 1.05957 V 38.73633 c 0,-0.481988 0.391058,-0.873047 0.873047,-0.873047 0.23775,0 0.452842,0.09569 0.610352,0.25 -0.11807,-0.342467 -0.439859,-0.59082 -0.822267,-0.59082 z m 0.873012,1.626182 0.211949,0.340615 h 1.058593 c 0.238037,0 0.452912,0.09479 0.610352,0.249023 -0.118025,-0.342447 -0.439508,-0.589843 -0.822266,-0.589843 z m -1.746336,4.283179 2.77e-4,3.32892 h -1.05957 c -0.48199,0 -0.873047,0.390475 -0.873047,0.873046 0,0.244495 0.101565,0.464492 0.263672,0.623047 -0.03083,-0.08929 -0.05176,-0.183475 -0.05176,-0.283203 0,-0.482571 0.391058,-0.873047 0.873047,-0.873047 h 1.05957 v -3.328124 z m 1.746336,0.79109 0.211949,0.340564 h 1.058593 c 0.238262,0 0.452874,0.09641 0.610352,0.250977 -0.117517,-0.343225 -0.438853,-0.591797 -0.822266,-0.591797 z m -1.746336,4.28376 2.77e-4,6.27946 c 1.1e-5,0.244238 0.100887,0.465503 0.262695,0.624023 -0.03081,-0.08926 -0.05078,-0.183511 -0.05078,-0.283203 v -6.280273 z"
       id="path1025"
       inkscape:connector-curvature="0"
       sodipodi:nodetypes="sscsscsscsscsccscscccsscsscccccscsccscscc" />
    <path
       id="path903"
       d="M 25.924824,61.994787 H 5.1365062 c -0.3678947,0 -0.6548758,-0.318415 -0.6164564,-0.683981 l 0.4691821,-4.499142 c 0.1257363,-1.206136 1.1421032,-2.12238 2.3552241,-2.12238 h 5.056805 v -0.796911 c 0,-1.72765 1.401667,-3.129433 3.129433,-3.129433 1.72829,0 3.129433,1.401143 3.129433,3.129433 v 0.796911 h 5.056805 c 1.213121,0 2.229489,0.916244 2.355225,2.12238 l 0.469182,4.499142 c 0.03836,0.365566 -0.24862,0.683981 -0.616515,0.683981 z"
       style="fill:url(#linearGradient1015);fill-opacity:1;stroke-width:0.11642237"
       inkscape:connector-curvature="0" />
    <path
       style="fill:none;fill-opacity:1;stroke:url(#linearGradient1194);stroke-width:2.80000028;stroke-miterlimit:4;stroke-dasharray:none;stroke-opacity:1"
       d="m 22.353516,8 c -1.657854,0 -3.064186,1.2170306 -3.302735,2.857422 l -5.021484,34.583984 c -2.123795,0.298924 -3.82266,1.993369 -4.0507814,4.181641 l -0.9375,8.998047 c -0.076839,0.731132 0.4966325,1.36914 1.2324224,1.36914 h 41.576171 c 0.73579,0 1.309142,-0.638008 1.232422,-1.36914 l -0.9375,-8.998047 C 51.916411,47.434775 50.217545,45.74033 48.09375,45.441406 L 43.072266,10.857422 C 42.834764,9.2170306 41.427385,8 39.769531,8 Z"
       id="path1169"
       mask="url(#mask1184)"
       inkscape:connector-curvature="0"
       transform="matrix(0.49999995,0,0,0.49999995,-2.8125003e-6,32.000003)" />
    <g
       style="fill:none;fill-opacity:1;stroke:#4e3b31;stroke-width:12.02518142;stroke-opacity:0.76300581;stroke-miterlimit:4;stroke-dasharray:none"
       transform="matrix(0.05821118,0,0,0.05821118,4.0014464,36.000003)"
       id="g1145">
      <path
         id="path1143"
         d="M 51.555528,323.02719 94.899,24.54 C 96.948,10.45 109.019,0 123.259,0 h 149.6 c 14.24,0 26.32,10.45 28.36,24.54 l 43.28046,298.05825"
         style="fill:none;fill-opacity:1;stroke:#4e3b31;stroke-width:12.02518142;stroke-miterlimit:4;stroke-dasharray:none;stroke-opacity:0.76300581"
         inkscape:connector-curvature="0"
         sodipodi:nodetypes="ccsscc" />
    </g>
    <g
       id="g913"
       transform="matrix(0.05821118,0,0,0.05821118,4.0014464,36.000003)"
       style="stroke-width:2.00000024">
      <path
         inkscape:connector-curvature="0"
         style="fill:#303030;fill-opacity:1;stroke-width:2.00000024"
         d="m 214.029,303.93 v 9.25 c 0,8.82 -7.15,15.97 -15.97,15.97 -8.82,0 -15.97,-7.15 -15.97,-15.97 v -9.25 c 0,-8.82 7.15,-15.97 15.97,-15.97 8.82,0 15.97,7.15 15.97,15.97 z"
         id="path911" />
    </g>
    <g
       id="g921"
       transform="matrix(0.05821118,0,0,0.05821118,4.0014464,36.000003)"
       style="fill:#303030;fill-opacity:1;stroke-width:2.00000024">
      <path
         inkscape:connector-curvature="0"
         style="fill:#303030;fill-opacity:1;stroke-width:2.00000024"
         d="m 290.678,383.27 c 0,8.81 -7.15,15.96 -15.97,15.96 h -153.3 c -8.82,0 -15.97,-7.15 -15.97,-15.96 0,-8.82 7.15,-15.97 15.97,-15.97 h 153.3 c 8.821,0 15.97,7.15 15.97,15.97 z"
         id="path919" />
    </g>
    <g
       transform="matrix(0.05821118,0,0,0.05821118,4.0014464,36.000003)"
       id="g1047"
       style="fill:#a1a4e8;fill-opacity:1;stroke-width:2.00000024">
      <path
         style="fill:#494949;fill-opacity:1;stroke-width:0.23284477"
         d="m 22.136719,50.761719 c -1.026846,0 -1.859375,0.832529 -1.859375,1.859375 0,0.702047 0.395315,1.307045 0.970703,1.623047 -0.289031,-0.327541 -0.470703,-0.751891 -0.470703,-1.222657 0,-1.026846 0.83253,-1.859375 1.859375,-1.859375 h 17.847656 c 0.323266,0 0.62387,0.08931 0.888672,0.234375 -0.340662,-0.385881 -0.833388,-0.634765 -1.388672,-0.634765 z"
         transform="matrix(8.5894146,0,0,8.5894146,-68.740219,-68.715316)"
         id="path1045"
         inkscape:connector-curvature="0" />
    </g>
    <g
       transform="matrix(0.05821118,0,0,0.05821118,4.0014464,36.000003)"
       id="g1061"
       style="fill:#494949;fill-opacity:1;stroke-width:2.00000024">
      <path
         style="fill:#494949;fill-opacity:1;stroke-width:0.23284477"
         d="m 31.060547,41.525391 c -1.026845,0 -1.859375,0.832529 -1.859375,1.859375 v 1.076172 c 0,0.688508 0.379387,1.282149 0.935547,1.603515 -0.330138,-0.335569 -0.535157,-0.794802 -0.535157,-1.302734 v -1.078125 c 0,-1.026845 0.832531,-1.859375 1.859376,-1.859375 0.338113,0 0.650651,0.09813 0.923828,0.255859 -0.337137,-0.341696 -0.806277,-0.554687 -1.324219,-0.554687 z"
         transform="matrix(8.5894146,0,0,8.5894146,-68.740219,-68.715316)"
         id="path1059"
         inkscape:connector-curvature="0" />
    </g>
    <g
       id="g1105" />
    <path
       inkscape:connector-curvature="0"
       style="fill:none;fill-opacity:1;stroke:#33343a;stroke-width:0.7;stroke-miterlimit:4;stroke-dasharray:none;stroke-opacity:0.7976879"
       d="m 24.037739,54.710895 c 1.067274,0.144884 1.919946,1.002688 2.034418,2.100769 l 0.469182,4.499142 c 0.03836,0.365566 -0.24862,0.683981 -0.616515,0.683981 H 5.1365062 c -0.3678947,0 -0.6548758,-0.318415 -0.6164564,-0.683981 L 4.9892319,56.811664 C 5.1039472,55.711247 5.9600061,54.852131 7.0304635,54.70998"
       id="path1141"
       sodipodi:nodetypes="cccssccc" />
    <path
       style="color:#000000;font-style:normal;font-variant:normal;font-weight:normal;font-stretch:normal;font-size:medium;line-height:normal;font-family:sans-serif;font-variant-ligatures:normal;font-variant-position:normal;font-variant-caps:normal;font-variant-numeric:normal;font-variant-alternates:normal;font-feature-settings:normal;text-indent:0;text-align:start;text-decoration:none;text-decoration-line:none;text-decoration-style:solid;text-decoration-color:#000000;letter-spacing:normal;word-spacing:normal;text-transform:none;writing-mode:lr-tb;direction:ltr;text-orientation:mixed;dominant-baseline:auto;baseline-shift:baseline;text-anchor:start;white-space:normal;shape-padding:0;clip-rule:nonzero;display:inline;overflow:visible;visibility:visible;opacity:1;isolation:auto;mix-blend-mode:normal;color-interpolation:sRGB;color-interpolation-filters:linearRGB;solid-color:#000000;solid-opacity:1;vector-effect:none;fill:#51535c;fill-opacity:1;fill-rule:nonzero;stroke:none;stroke-width:2.95698118;stroke-linecap:round;stroke-linejoin:miter;stroke-miterlimit:4;stroke-dasharray:none;stroke-dashoffset:0;stroke-opacity:1;color-rendering:auto;image-rendering:auto;shape-rendering:auto;text-rendering:auto;enable-background:accumulate"
       d="m 25.565424,38.866213 a 0.73931913,0.73931913 0 0 0 -0.651367,0.378906 l -1.391601,2.410157 a 1.9294573,1.9294573 0 0 0 -1.921875,0.947265 1.9294573,1.9294573 0 0 0 0.140625,2.138672 L 17.7373,51.674806 c 0.408134,0.406161 0.702527,0.924842 0.837891,1.504882 l 4.446288,-7.700194 a 1.9294573,1.9294573 0 0 0 1.920899,-0.947266 1.9294573,1.9294573 0 0 0 -0.139649,-2.137695 l 1.391602,-2.410156 a 0.73931913,0.73931913 0 0 0 -0.628907,-1.118164 z"
       id="path1129"
       inkscape:connector-curvature="0" />
    <path
       inkscape:connector-curvature="0"
       id="path1074"
       d="m 25.365229,38.616213 a 0.73931913,0.73931913 0 0 0 -0.651367,0.378906 l -1.391602,2.410157 a 1.9294573,1.9294573 0 0 0 -1.921874,0.947265 1.9294573,1.9294573 0 0 0 0.140625,2.138672 l -4.029297,6.978515 c 0.421907,0.345384 0.748388,0.800134 0.944336,1.319335 l 4.365234,-7.559569 a 1.9294573,1.9294573 0 0 0 1.920898,-0.947266 1.9294573,1.9294573 0 0 0 -0.139648,-2.137695 l 1.391601,-2.410156 a 0.73931913,0.73931913 0 0 0 -0.628906,-1.118164 z"
       style="color:#000000;font-style:normal;font-variant:normal;font-weight:normal;font-stretch:normal;font-size:medium;line-height:normal;font-family:sans-serif;font-variant-ligatures:normal;font-variant-position:normal;font-variant-caps:normal;font-variant-numeric:normal;font-variant-alternates:normal;font-feature-settings:normal;text-indent:0;text-align:start;text-decoration:none;text-decoration-line:none;text-decoration-style:solid;text-decoration-color:#000000;letter-spacing:normal;word-spacing:normal;text-transform:none;writing-mode:lr-tb;direction:ltr;text-orientation:mixed;dominant-baseline:auto;baseline-shift:baseline;text-anchor:start;white-space:normal;shape-padding:0;clip-rule:nonzero;display:inline;overflow:visible;visibility:visible;opacity:1;isolation:auto;mix-blend-mode:normal;color-interpolation:sRGB;color-interpolation-filters:linearRGB;solid-color:#000000;solid-opacity:1;vector-effect:none;fill:url(#linearGradient969);fill-opacity:1;fill-rule:nonzero;stroke:none;stroke-width:2.95698118;stroke-linecap:round;stroke-linejoin:miter;stroke-miterlimit:4;stroke-dasharray:none;stroke-dashoffset:0;stroke-opacity:1;color-rendering:auto;image-rendering:auto;shape-rendering:auto;text-rendering:auto;enable-background:accumulate" />
    <circle
       cy="25.978197"
       cx="41.6394"
       id="circle1080"
       style="opacity:1;fill:#303030;fill-opacity:1;fill-rule:evenodd;stroke:none;stroke-width:0.99403161;stroke-linecap:round;stroke-linejoin:round;stroke-miterlimit:4;stroke-dasharray:none;stroke-opacity:0.75686275;paint-order:markers fill stroke"
       transform="rotate(29.999999)"
       r="0.75587809" />
    <path
       inkscape:connector-curvature="0"
       style="opacity:1;fill:#787a80;fill-opacity:1;fill-rule:evenodd;stroke:none;stroke-width:0.99403161;stroke-linecap:round;stroke-linejoin:round;stroke-miterlimit:4;stroke-dasharray:none;stroke-opacity:0.75686275;paint-order:markers fill stroke"
       d="m 23.449525,42.663036 a 0.75587807,0.75587807 0 0 0 -1.032287,0.2766 0.75587807,0.75587807 0 0 0 -0.04223,0.668733 0.75587807,0.75587807 0 0 1 0.09468,-0.472988 0.75587807,0.75587807 0 0 1 1.032286,-0.2766 0.75587807,0.75587807 0 0 1 0.319344,0.365467 0.75587807,0.75587807 0 0 0 -0.371793,-0.561212 z"
       id="circle1086" />
    <path
       inkscape:connector-curvature="0"
       style="fill:none;fill-opacity:1;stroke:#33343a;stroke-width:0.69999999;stroke-miterlimit:4;stroke-dasharray:none;stroke-opacity:0.79607843"
       d="m 7.0111068,54.712632 5.3901542,-0.02335 v -0.796911 c 0,-1.72765 1.401667,-3.129433 3.129433,-3.129433 1.72829,0 3.129433,1.401143 3.129433,3.129433 v 0.796911 l 5.389247,0.02322"
       id="path973"
       sodipodi:nodetypes="ccssscc" />
  </g>
</svg>
