<?xml version="1.0" encoding="UTF-8" standalone="no"?>
<!-- Created with Inkscape (http://www.inkscape.org/) -->

<svg
   xmlns:dc="http://purl.org/dc/elements/1.1/"
   xmlns:cc="http://creativecommons.org/ns#"
   xmlns:rdf="http://www.w3.org/1999/02/22-rdf-syntax-ns#"
   xmlns:svg="http://www.w3.org/2000/svg"
   xmlns="http://www.w3.org/2000/svg"
   xmlns:xlink="http://www.w3.org/1999/xlink"
   xmlns:sodipodi="http://sodipodi.sourceforge.net/DTD/sodipodi-0.dtd"
   xmlns:inkscape="http://www.inkscape.org/namespaces/inkscape"
   width="32"
   height="32"
   viewBox="0 0 32.000001 32.000001"
   id="svg2"
   version="1.1"
   inkscape:version="0.92.4 5da689c313, 2019-01-14"
   sodipodi:docname="com.github.artemanufrij.metronome.svg">
  <defs
     id="defs4"><linearGradient
   inkscape:collect="always"
   id="linearGradient1192">
  <stop
     style="stop-color:#d9d9d9;stop-opacity:0.30857143"
     offset="0"
     id="stop1188" />
  <stop
     id="stop1206"
     offset="0.22236782"
     style="stop-color:#dcdcdc;stop-opacity:0.09714286" />
  <stop
     id="stop1204"
     offset="0.72553766"
     style="stop-color:#ececec;stop-opacity:0.08" />
  <stop
     style="stop-color:#ffffff;stop-opacity:0.53142858"
     offset="1"
     id="stop1190" />
</linearGradient>
<linearGradient
   inkscape:collect="always"
   id="linearGradient1009">
  <stop
     style="stop-color:#f29950;stop-opacity:1"
     offset="0"
     id="stop1005" />
  <stop
     style="stop-color:#e76d27;stop-opacity:1"
     offset="1"
     id="stop1007" />
</linearGradient>
<linearGradient
   inkscape:collect="always"
   id="linearGradient1001">
  <stop
     style="stop-color:#e14f4f;stop-opacity:1"
     offset="0"
     id="stop997" />
  <stop
     style="stop-color:#bc242c;stop-opacity:1"
     offset="1"
     id="stop999" />
</linearGradient>
<linearGradient
   inkscape:collect="always"
   id="linearGradient4224">
  <stop
     style="stop-color:#000000;stop-opacity:0.6"
     offset="0"
     id="stop4226" />
  <stop
     style="stop-color:#000000;stop-opacity:0;"
     offset="1"
     id="stop4228" />
</linearGradient>
<linearGradient
   inkscape:collect="always"
   id="linearGradient4202">
  <stop
     style="stop-color:#000000;stop-opacity:0.6"
     offset="0"
     id="stop4204" />
  <stop
     style="stop-color:#000000;stop-opacity:0;"
     offset="1"
     id="stop4206" />
</linearGradient>
<linearGradient
   inkscape:collect="always"
   id="linearGradient4189">
  <stop
     style="stop-color:#000000;stop-opacity:0"
     offset="0"
     id="stop4192" />
  <stop
     id="stop4198"
     offset="0.5"
     style="stop-color:#000000;stop-opacity:0.6" />
  <stop
     style="stop-color:#000000;stop-opacity:0;"
     offset="1"
     id="stop4194" />
</linearGradient>
<linearGradient
   inkscape:collect="always"
   id="linearGradient4207">
  <stop
     style="stop-color:#000000;stop-opacity:0.1254902"
     offset="0"
     id="stop4209" />
  <stop
     style="stop-color:#000000;stop-opacity:0"
     offset="1"
     id="stop4211" />
</linearGradient>
<linearGradient
   id="linearGradient4199"
   inkscape:collect="always">
  <stop
     id="stop4201"
     offset="0"
     style="stop-color:#000000;stop-opacity:0.25098041" />
  <stop
     id="stop4203"
     offset="1"
     style="stop-color:#ffffff;stop-opacity:0.50196081" />
</linearGradient>
<linearGradient
   inkscape:collect="always"
   id="linearGradient4187">
  <stop
     style="stop-color:#000000;stop-opacity:0.43921569"
     offset="0"
     id="stop4189" />
  <stop
     style="stop-color:#000000;stop-opacity:0.25098041"
     offset="1"
     id="stop4191" />
</linearGradient>
<linearGradient
   inkscape:collect="always"
   xlink:href="#linearGradient4187"
   id="linearGradient4193"
   x1="32"
   y1="1048"
   x2="32"
   y2="993"
   gradientUnits="userSpaceOnUse" />
<linearGradient
   inkscape:collect="always"
   xlink:href="#linearGradient4199"
   id="linearGradient4197"
   gradientUnits="userSpaceOnUse"
   x1="32"
   y1="1030"
   x2="32"
   y2="993"
   gradientTransform="translate(0,1.0087664)" />
<linearGradient
   inkscape:collect="always"
   xlink:href="#linearGradient4207"
   id="linearGradient4213"
   x1="32"
   y1="1046"
   x2="32"
   y2="993"
   gradientUnits="userSpaceOnUse" />
<filter
   style="color-interpolation-filters:sRGB"
   inkscape:label="Drop Shadow"
   id="filter4441">
  <feFlood
     flood-opacity="0.498039"
     flood-color="rgb(0,0,0)"
     result="flood"
     id="feFlood4443" />
  <feComposite
     in="flood"
     in2="SourceGraphic"
     operator="in"
     result="composite1"
     id="feComposite4445" />
  <feGaussianBlur
     in="composite1"
     stdDeviation="1"
     result="blur"
     id="feGaussianBlur4447" />
  <feOffset
     dx="1.38778e-16"
     dy="1"
     result="offset"
     id="feOffset4449" />
  <feComposite
     in="SourceGraphic"
     in2="offset"
     operator="over"
     result="composite2"
     id="feComposite4451" />
</filter>
<filter
   style="color-interpolation-filters:sRGB"
   inkscape:label="Drop Shadow"
   id="filter4175">
  <feFlood
     flood-opacity="0.498039"
     flood-color="rgb(0,0,0)"
     result="flood"
     id="feFlood4177" />
  <feComposite
     in="flood"
     in2="SourceGraphic"
     operator="in"
     result="composite1"
     id="feComposite4179" />
  <feGaussianBlur
     in="composite1"
     stdDeviation="1"
     result="blur"
     id="feGaussianBlur4181" />
  <feOffset
     dx="1.38778e-16"
     dy="1"
     result="offset"
     id="feOffset4183" />
  <feComposite
     in="SourceGraphic"
     in2="offset"
     operator="over"
     result="composite2"
     id="feComposite4185" />
</filter>
<filter
   style="color-interpolation-filters:sRGB"
   inkscape:label="Drop Shadow"
   id="filter4187">
  <feFlood
     flood-opacity="0.498039"
     flood-color="rgb(0,0,0)"
     result="flood"
     id="feFlood4189" />
  <feComposite
     in="flood"
     in2="SourceGraphic"
     operator="in"
     result="composite1"
     id="feComposite4191" />
  <feGaussianBlur
     in="composite1"
     stdDeviation="1"
     result="blur"
     id="feGaussianBlur4193" />
  <feOffset
     dx="1.38778e-16"
     dy="1"
     result="offset"
     id="feOffset4195" />
  <feComposite
     in="SourceGraphic"
     in2="offset"
     operator="over"
     result="composite2"
     id="feComposite4197" />
</filter>
<linearGradient
   inkscape:collect="always"
   xlink:href="#linearGradient4189"
   id="linearGradient4196"
   x1="32"
   y1="58"
   x2="32"
   y2="62"
   gradientUnits="userSpaceOnUse"
   gradientTransform="matrix(0.95652174,0,0,1.25,1.3913043,-15.5)" />
<radialGradient
   inkscape:collect="always"
   xlink:href="#linearGradient4202"
   id="radialGradient4208"
   cx="9"
   cy="60"
   fx="9"
   fy="60"
   r="4"
   gradientTransform="matrix(-2,0,0,-0.625,28,97)"
   gradientUnits="userSpaceOnUse" />
<radialGradient
   inkscape:collect="always"
   xlink:href="#linearGradient4224"
   id="radialGradient4230"
   cx="56"
   cy="60"
   fx="56"
   fy="60"
   r="3"
   gradientTransform="matrix(2.6666666,0,0,0.83333334,-95.333334,9.5)"
   gradientUnits="userSpaceOnUse" />
<radialGradient
   inkscape:collect="always"
   xlink:href="#linearGradient4203"
   id="radialGradient4209"
   cx="32"
   cy="-7"
   fx="32"
   fy="-7"
   r="28"
   gradientTransform="matrix(1,0,0,0.71428572,-9.9121094e-7,9)"
   gradientUnits="userSpaceOnUse" />
<linearGradient
   inkscape:collect="always"
   id="linearGradient4203">
  <stop
     style="stop-color:#ffffff;stop-opacity:0.4"
     offset="0"
     id="stop4205" />
  <stop
     style="stop-color:#ffffff;stop-opacity:0"
     offset="1"
     id="stop4207" />
</linearGradient>

	
	
	
	
	
	
	
	
	
	
	
	
	
<linearGradient
   inkscape:collect="always"
   xlink:href="#linearGradient1001"
   id="linearGradient1015"
   gradientUnits="userSpaceOnUse"
   x1="16.493269"
   y1="362.08194"
   x2="382.76013"
   y2="392.14819"
   gradientTransform="matrix(0.05342101,0,0,0.05342101,5.7807624,37.999999)" />

		
	
		
	<linearGradient
   inkscape:collect="always"
   xlink:href="#linearGradient1001"
   id="linearGradient1039"
   x1="85.821709"
   y1="26.51475"
   x2="98.808228"
   y2="26.744394"
   gradientUnits="userSpaceOnUse"
   gradientTransform="matrix(0.45885523,0,0,0.45885523,-26.443722,34.329157)" />

		
	
		
	
		
	<mask
   maskUnits="userSpaceOnUse"
   id="mask1184">
  <path
     id="path1186"
     d="m 22.353516,8 c -1.657854,0 -3.064186,1.2170306 -3.302735,2.857422 l -5.021484,34.583984 c -2.123795,0.298924 -3.82266,1.993369 -4.0507814,4.181641 l -0.9375,8.998047 c -0.076839,0.731132 0.4966325,1.36914 1.2324224,1.36914 h 41.576171 c 0.73579,0 1.309142,-0.638008 1.232422,-1.36914 l -0.9375,-8.998047 C 51.916411,47.434775 50.217545,45.74033 48.09375,45.441406 L 43.072266,10.857422 C 42.834764,9.2170306 41.427385,8 39.769531,8 Z"
     style="fill:#fef6ef;fill-opacity:1;stroke:none;stroke-width:0.11642237;stroke-opacity:1"
     inkscape:connector-curvature="0" />
</mask>
<linearGradient
   inkscape:collect="always"
   xlink:href="#linearGradient1192"
   id="linearGradient1194"
   x1="31.034418"
   y1="58.561069"
   x2="30.83861"
   y2="8"
   gradientUnits="userSpaceOnUse" />
<linearGradient
   id="linearGradient4170">
  <stop
     id="stop1245"
     offset="0"
     style="stop-color:#575d5e;stop-opacity:1" />
  <stop
     id="stop1247"
     offset="1"
     style="stop-color:#292d2e;stop-opacity:1" />
</linearGradient>
<linearGradient
   xlink:href="#linearGradient3924-2-2-5-8"
   gradientUnits="userSpaceOnUse"
   gradientTransform="matrix(1.4324324,0,0,1.4362832,59.562469,-7.4574321)"
   y2="43"
   y1="5"
   x2="24"
   x1="24"
   id="linearGradient3180" />
<linearGradient
   id="linearGradient3924-2-2-5-8">
  <stop
     id="stop1251"
     style="stop-color:#ffffff;stop-opacity:1"
     offset="0" />
  <stop
     id="stop1253"
     style="stop-color:#ffffff;stop-opacity:0.23529412"
     offset=".063" />
  <stop
     id="stop1255"
     style="stop-color:#ffffff;stop-opacity:0.15686275"
     offset=".951" />
  <stop
     id="stop1257"
     style="stop-color:#ffffff;stop-opacity:0.39215687"
     offset="1" />
</linearGradient>
<radialGradient
   xlink:href="#linearGradient3688-166-749-4-0-3-8"
   gradientUnits="userSpaceOnUse"
   gradientTransform="matrix(2.003784,0,0,1.4,27.98813,-17.4)"
   fy="43.5"
   fx="4.993"
   r="2.5"
   cy="43.5"
   cx="4.993"
   id="radialGradient3337-2-2" />
<linearGradient
   id="linearGradient3688-166-749-4-0-3-8">
  <stop
     id="stop1261"
     style="stop-color:#181818;stop-opacity:1"
     offset="0" />
  <stop
     id="stop1263"
     style="stop-color:#181818;stop-opacity:0"
     offset="1" />
</linearGradient>
<radialGradient
   xlink:href="#linearGradient3688-166-749-4-0-3-8"
   gradientUnits="userSpaceOnUse"
   gradientTransform="matrix(2.003784,0,0,1.4,-20.01187,-104.4)"
   fy="43.5"
   fx="4.993"
   r="2.5"
   cy="43.5"
   cx="4.993"
   id="radialGradient3339-1-4" />
<linearGradient
   id="linearGradient3702-501-757-8-4-1-1">
  <stop
     id="stop1272"
     style="stop-color:#181818;stop-opacity:0"
     offset="0" />
  <stop
     id="stop1274"
     style="stop-color:#181818;stop-opacity:1"
     offset=".5" />
  <stop
     id="stop1276"
     style="stop-color:#181818;stop-opacity:0"
     offset="1" />
</linearGradient>
<linearGradient
   xlink:href="#linearGradient3702-501-757-8-4-1-1"
   gradientUnits="userSpaceOnUse"
   y2="39.999001"
   y1="47.028"
   x2="25.058001"
   x1="25.058001"
   id="linearGradient4159" />
<linearGradient
   xlink:href="#linearGradient4170"
   gradientUnits="userSpaceOnUse"
   y2="59"
   y1="5"
   x2="32"
   x1="32"
   id="linearGradient4166"
   gradientTransform="translate(61.94085,-4.986654)" />
<linearGradient
   inkscape:collect="always"
   xlink:href="#linearGradient1009"
   id="linearGradient1487"
   gradientUnits="userSpaceOnUse"
   x1="19.163202"
   y1="158.68634"
   x2="330.28186"
   y2="224.68636" />
<linearGradient
   inkscape:collect="always"
   xlink:href="#linearGradient1009"
   id="linearGradient1489"
   gradientUnits="userSpaceOnUse"
   x1="19.163202"
   y1="158.68634"
   x2="330.28186"
   y2="224.68636" />
<linearGradient
   inkscape:collect="always"
   xlink:href="#linearGradient1009"
   id="linearGradient1491"
   gradientUnits="userSpaceOnUse"
   x1="19.163202"
   y1="158.68634"
   x2="330.28186"
   y2="224.68636" />
</defs>
  <sodipodi:namedview
     id="base"
     pagecolor="#ffffff"
     bordercolor="#666666"
     borderopacity="1.0"
     inkscape:pageopacity="0.0"
     inkscape:pageshadow="2"
     inkscape:zoom="15.999999"
     inkscape:cx="10.373104"
     inkscape:cy="16.246863"
     inkscape:document-units="px"
     inkscape:current-layer="layer5"
     showgrid="true"
     inkscape:window-width="2560"
     inkscape:window-height="1386"
     inkscape:window-x="0"
     inkscape:window-y="28"
     inkscape:window-maximized="1"
     units="px"
     showguides="true"
     inkscape:guide-bbox="true"
     inkscape:snap-center="true"
     inkscape:snap-grids="false"
     inkscape:object-paths="true"
     inkscape:snap-intersection-paths="true"
     inkscape:snap-page="true">
    <inkscape:grid
       type="xygrid"
       id="grid964" />
    <sodipodi:guide
       position="44.000001,2.0000001"
       orientation="0,1"
       id="guide966"
       inkscape:locked="false" />
    <sodipodi:guide
       position="4.0000001,26.000001"
       orientation="0,1"
       id="guide968"
       inkscape:locked="false" />
  </sodipodi:namedview>
  <metadata
     id="metadata7">
    <rdf:RDF>
      <cc:Work
         rdf:about="">
        <dc:format>image/svg+xml</dc:format>
        <dc:type
           rdf:resource="http://purl.org/dc/dcmitype/StillImage" />
        <dc:title></dc:title>
      </cc:Work>
    </rdf:RDF>
  </metadata>
  <g
     inkscape:groupmode="layer"
     id="layer3"
     inkscape:label="Shadow"
     style="display:none"
     transform="translate(0,-32)">
    <rect
       style="opacity:1;fill:url(#linearGradient4196);fill-opacity:1;stroke:none;stroke-width:1;stroke-miterlimit:4;stroke-dasharray:none;stroke-opacity:0.25098039"
       id="rect4187"
       width="44"
       height="5"
       x="10"
       y="57"
       ry="0" />
    <rect
       style="opacity:1;fill:url(#radialGradient4208);fill-opacity:1;stroke:none;stroke-width:1;stroke-miterlimit:4;stroke-dasharray:none;stroke-opacity:0.25098039"
       id="rect4200"
       width="8"
       height="5"
       x="2"
       y="57" />
    <rect
       style="opacity:1;fill:url(#radialGradient4230);fill-opacity:1;stroke:none;stroke-width:1;stroke-miterlimit:4;stroke-dasharray:none;stroke-opacity:0.25098039"
       id="rect4222"
       width="8"
       height="5"
       x="54"
       y="57" />
  </g>
  <g
     inkscape:label="Layer 1"
     inkscape:groupmode="layer"
     id="layer1"
     transform="translate(0,-1020.3622)"
     style="display:none">
    <rect
       style="opacity:1;fill:#68b723;fill-opacity:1;stroke:none;stroke-width:1;stroke-miterlimit:4;stroke-dasharray:none;stroke-opacity:1"
       id="rect4155"
       width="56"
       height="56"
       x="4"
       y="992.36218"
       rx="4"
       ry="4" />
    <rect
       ry="3.5"
       rx="3.5"
       y="992.85339"
       x="4.5"
       height="55"
       width="55"
       id="rect4157"
       style="opacity:1;fill:none;fill-opacity:1;stroke:url(#linearGradient4193);stroke-width:1;stroke-miterlimit:4;stroke-dasharray:none;stroke-opacity:1" />
    <rect
       style="opacity:1;fill:none;fill-opacity:1;stroke:url(#linearGradient4197);stroke-width:1;stroke-miterlimit:4;stroke-dasharray:none;stroke-opacity:1"
       id="rect4195"
       width="53"
       height="53"
       x="5.5"
       y="993.86218"
       rx="2.5"
       ry="2.5" />
    <rect
       ry="2"
       rx="2"
       y="994.36218"
       x="6"
       height="52"
       width="52"
       id="rect4205"
       style="opacity:1;fill:url(#linearGradient4213);fill-opacity:1;stroke:none;stroke-width:1;stroke-miterlimit:4;stroke-dasharray:none;stroke-opacity:1" />
  </g>
  <g
     inkscape:groupmode="layer"
     id="layer2"
     inkscape:label="Icon"
     style="display:none"
     transform="translate(0,-32)">
    <path
       sodipodi:nodetypes="ccccc"
       inkscape:connector-curvature="0"
       id="path4806"
       d="M 27,12 16,52 H 48 L 37,12 Z"
       style="display:inline;fill:none;fill-opacity:1;fill-rule:evenodd;stroke:#ffffff;stroke-width:4;stroke-linecap:round;stroke-linejoin:round;stroke-miterlimit:4;stroke-dasharray:none;stroke-opacity:1;filter:url(#filter4187)" />
    <rect
       inkscape:transform-center-x="-9.4999991"
       transform="rotate(30)"
       inkscape:transform-center-y="-16.454483"
       ry="1.9000005"
       y="-11.349068"
       x="49.226818"
       height="38"
       width="4.000001"
       id="rect4808"
       style="display:inline;fill:#ffffff;fill-opacity:1;stroke:none" />
  </g>
  <g
     inkscape:groupmode="layer"
     id="layer4"
     inkscape:label="Spot"
     style="display:none"
     transform="translate(0,-32)">
    <rect
       style="opacity:1;fill:url(#radialGradient4209);fill-opacity:1;fill-rule:evenodd;stroke:none;stroke-width:1px;stroke-linecap:butt;stroke-linejoin:miter;stroke-opacity:1"
       id="rect3384"
       width="56"
       height="20"
       x="4"
       y="4"
       ry="4" />
  </g>
  <g
     inkscape:groupmode="layer"
     id="layer6"
     inkscape:label="New 1"
     transform="translate(0,-32)"
     style="display:none">
    <rect
       style="opacity:1;fill:none;fill-opacity:1;fill-rule:evenodd;stroke:#7a4300;stroke-width:1.66735828;stroke-linecap:round;stroke-linejoin:round;stroke-miterlimit:4;stroke-dasharray:none;stroke-opacity:0.6;paint-order:markers fill stroke"
       id="rect1581"
       width="32"
       height="31.999996"
       x="0"
       y="32" />
  </g>
  <g
     inkscape:groupmode="layer"
     id="layer5"
     inkscape:label="New"
     transform="translate(0,-32)">
    <g
       id="g1158" />
    <g
       id="g1105" />
    <path
       style="color:#000000;font-style:normal;font-variant:normal;font-weight:normal;font-stretch:normal;font-size:medium;line-height:normal;font-family:sans-serif;font-variant-ligatures:normal;font-variant-position:normal;font-variant-caps:normal;font-variant-numeric:normal;font-variant-alternates:normal;font-feature-settings:normal;text-indent:0;text-align:start;text-decoration:none;text-decoration-line:none;text-decoration-style:solid;text-decoration-color:#000000;letter-spacing:normal;word-spacing:normal;text-transform:none;writing-mode:lr-tb;direction:ltr;text-orientation:mixed;dominant-baseline:auto;baseline-shift:baseline;text-anchor:start;white-space:normal;shape-padding:0;clip-rule:nonzero;display:inline;overflow:visible;visibility:visible;opacity:1;isolation:auto;mix-blend-mode:normal;color-interpolation:sRGB;color-interpolation-filters:linearRGB;solid-color:#000000;solid-opacity:1;vector-effect:none;fill:none;fill-opacity:1;fill-rule:nonzero;stroke:#7a4300;stroke-width:0.45885521;stroke-linecap:round;stroke-linejoin:miter;stroke-miterlimit:4;stroke-dasharray:none;stroke-dashoffset:0;stroke-opacity:0.6;color-rendering:auto;image-rendering:auto;shape-rendering:auto;text-rendering:auto;enable-background:accumulate"
       d="m 23.235136,46.698669 c 0.70926,0.0929 1.404754,-0.250073 1.762829,-0.869316 0.357573,-0.619758 0.307007,-1.393813 -0.128157,-1.961785 l 1.277087,-2.211826 c 0.173026,-0.290201 0.106163,-0.663488 -0.156835,-0.875589 -0.113093,-0.230873 -0.346962,-0.377994 -0.60404,-0.379989 -0.247806,-0.002 -0.476966,0.131348 -0.597765,0.347726 l -1.277088,2.211825 c -0.35265,-0.04637 -0.701936,0.01505 -1.008071,0.164613"
       id="path1378"
       inkscape:connector-curvature="0"
       sodipodi:nodetypes="ccccccccc" />
    <g
       transform="matrix(0.64142744,0,0,0.32775373,0.60574134,47.603184)"
       style="opacity:0.6"
       id="g1289">
      <rect
         width="5"
         height="7"
         x="38"
         y="40"
         style="fill:url(#radialGradient3337-2-2);fill-opacity:1;stroke:none"
         id="rect1283" />
      <rect
         width="5"
         height="7"
         x="-10"
         y="-47"
         transform="scale(-1)"
         style="fill:url(#radialGradient3339-1-4);fill-opacity:1;stroke:none"
         id="rect1285" />
      <rect
         width="28"
         height="7"
         x="10"
         y="40"
         style="fill:url(#linearGradient4159);fill-opacity:1;stroke:none"
         id="rect1287" />
    </g>
    <g
       id="g883"
       transform="matrix(0.05342101,0,0,0.05342101,5.7807624,38)"
       style="fill:url(#linearGradient1489);fill-opacity:1">
		<path
   inkscape:connector-curvature="0"
   style="fill:url(#linearGradient1487);fill-opacity:1"
   d="M 360.718,434.29 H 35.399 L 94.899,24.54 C 96.948,10.45 109.019,0 123.259,0 h 149.6 c 14.24,0 26.32,10.45 28.36,24.54 z"
   id="path881" />

	</g>
    <path
       id="path889"
       d="m 18.935771,46.347568 c 0,0.442859 -0.358454,0.801314 -0.801315,0.801314 h -0.971728 v 8.091681 c 0,0.442327 -0.358989,0.801315 -0.801315,0.801315 -0.442326,0 -0.801315,-0.358988 -0.801315,-0.801315 v -5.763058 h -0.971729 c -0.442326,0 -0.801315,-0.35899 -0.801315,-0.801315 0,-0.442862 0.358989,-0.801317 0.801315,-0.801317 h 0.971729 V 44.82026 h -0.971729 c -0.442326,0 -0.801315,-0.358455 -0.801315,-0.801315 0,-0.442326 0.358989,-0.801315 0.801315,-0.801315 h 0.971729 v -3.018821 c 0,-0.442326 0.358989,-0.801316 0.801315,-0.801316 0.442326,0 0.801315,0.35899 0.801315,0.801316 v 0.690733 h 0.971728 c 0.442861,0 0.801315,0.358455 0.801315,0.801316 0,0.442325 -0.358454,0.801315 -0.801315,0.801315 h -0.971728 v 3.05408 h 0.971728 c 0.442861,0 0.801315,0.358988 0.801315,0.801315 z"
       style="fill:url(#linearGradient1039);fill-opacity:1;stroke-width:0.05342101"
       inkscape:connector-curvature="0" />
    <path
       style="fill:#8b1e20;fill-opacity:1;stroke-width:0.05342101"
       d="m 16.361556,39.397178 c -0.442327,0 -0.801204,0.358878 -0.801204,0.801204 v 3.019303 h -0.972379 c -0.442327,0 -0.801204,0.35888 -0.801204,0.801204 0,0.224387 0.09261,0.426375 0.241079,0.571777 -0.02806,-0.08168 -0.0466,-0.167765 -0.0466,-0.259002 0,-0.442326 0.358879,-0.8021 0.801205,-0.8021 h 0.972378 v -3.018408 c 0,-0.442326 0.358879,-0.801204 0.801205,-0.801204 0.218186,0 0.415578,0.08781 0.560127,0.229428 C 17.00781,39.625093 16.7125,39.397178 16.361561,39.397178 Z m 0.801172,1.492364 0.194508,0.312586 h 0.971482 c 0.218449,0 0.415644,0.08699 0.560127,0.228531 -0.108313,-0.314268 -0.403341,-0.541306 -0.754602,-0.541306 z m -1.60263,3.930718 2.54e-4,3.054985 h -0.972379 c -0.442327,0 -0.801204,0.358344 -0.801204,0.801204 0,0.224375 0.0932,0.426269 0.241974,0.571777 -0.0283,-0.08194 -0.0475,-0.168377 -0.0475,-0.259898 0,-0.442861 0.358878,-0.801204 0.801204,-0.801204 h 0.972378 v -3.054255 z m 1.60263,0.725993 0.194508,0.312539 h 0.971482 c 0.218656,0 0.415607,0.08847 0.560127,0.230323 -0.107846,-0.314981 -0.40274,-0.543098 -0.754602,-0.543098 z m -1.60263,3.931252 2.54e-4,5.762726 c 10e-6,0.224139 0.09258,0.427197 0.241079,0.572672 -0.02828,-0.08192 -0.0466,-0.16841 -0.0466,-0.259899 v -5.763472 z"
       id="path1025"
       inkscape:connector-curvature="0"
       sodipodi:nodetypes="sscsscsscsscsccscscccsscsscccccscsccscscc" />
    <path
       id="path903"
       d="M 25.900078,61.855687 H 6.8224188 c -0.3376209,0 -0.6009866,-0.292212 -0.5657286,-0.627697 l 0.4305734,-4.12891 c 0.1153895,-1.106883 1.0481202,-1.947731 2.1614142,-1.947731 h 4.6406832 v -0.731332 c 0,-1.585483 1.286325,-2.871914 2.871914,-2.871914 1.586069,0 2.871914,1.285844 2.871914,2.871914 v 0.731332 h 4.640682 c 1.113295,0 2.046026,0.840848 2.161415,1.947731 l 0.430574,4.12891 c 0.03521,0.335485 -0.228161,0.627697 -0.565782,0.627697 z"
       style="fill:url(#linearGradient1015);fill-opacity:1;stroke-width:0.05342101"
       inkscape:connector-curvature="0" />
    <path
       style="fill:none;fill-opacity:1;stroke:url(#linearGradient1194);stroke-width:2;stroke-miterlimit:4;stroke-dasharray:none;stroke-opacity:1"
       d="m 22.353516,8 c -1.657854,0 -3.064186,1.2170306 -3.302735,2.857422 l -5.021484,34.583984 c -2.123795,0.298924 -3.82266,1.993369 -4.0507814,4.181641 l -0.9375,8.998047 c -0.076839,0.731132 0.4966325,1.36914 1.2324224,1.36914 h 41.576171 c 0.73579,0 1.309142,-0.638008 1.232422,-1.36914 l -0.9375,-8.998047 C 51.916411,47.434775 50.217545,45.74033 48.09375,45.441406 L 43.072266,10.857422 C 42.834764,9.2170306 41.427385,8 39.769531,8 Z"
       id="path1169"
       mask="url(#mask1184)"
       inkscape:connector-curvature="0"
       transform="matrix(0.45885524,0,0,0.45885524,2.1085901,34.329158)" />
    <g
       style="fill:url(#linearGradient1491);fill-opacity:1;stroke:#ae4b13;stroke-opacity:0.61142853"
       transform="matrix(0.05342101,0,0,0.05342101,5.7807624,38)"
       id="g1145">
		<path
   id="path1143"
   d="M 51.555528,323.02719 94.899,24.54 C 96.948,10.45 109.019,0 123.259,0 h 149.6 c 14.24,0 26.32,10.45 28.36,24.54 l 43.28046,298.05825"
   style="fill:none;fill-opacity:1;stroke:#ae4b13;stroke-width:8.5894146;stroke-miterlimit:4;stroke-dasharray:none;stroke-opacity:0.61142853"
   inkscape:connector-curvature="0"
   sodipodi:nodetypes="ccsscc" />

	</g>
    <g
       id="g913"
       transform="matrix(0.05342101,0,0,0.05342101,5.7807624,38)">
		<path
   inkscape:connector-curvature="0"
   style="fill:#dbdcf6"
   d="m 214.029,303.93 v 9.25 c 0,8.82 -7.15,15.97 -15.97,15.97 -8.82,0 -15.97,-7.15 -15.97,-15.97 v -9.25 c 0,-8.82 7.15,-15.97 15.97,-15.97 8.82,0 15.97,7.15 15.97,15.97 z"
   id="path911" />

	</g>
    <g
       id="g921"
       transform="matrix(0.05342101,0,0,0.05342101,5.7807624,38)">
		<path
   inkscape:connector-curvature="0"
   style="fill:#dbdcf6"
   d="m 290.678,383.27 c 0,8.81 -7.15,15.96 -15.97,15.96 h -153.3 c -8.82,0 -15.97,-7.15 -15.97,-15.96 0,-8.82 7.15,-15.97 15.97,-15.97 h 153.3 c 8.821,0 15.97,7.15 15.97,15.97 z"
   id="path919" />

	</g>
    <g
       transform="matrix(0.05342101,0,0,0.05342101,5.7807624,38)"
       id="g1047"
       style="fill:#a1a4e8;fill-opacity:1">
		<path
   style="fill:#a1a4e8;fill-opacity:1;stroke-width:0.11642237"
   d="m 22.136719,50.761719 c -1.026846,0 -1.859375,0.832529 -1.859375,1.859375 0,0.702047 0.395315,1.307045 0.970703,1.623047 -0.289031,-0.327541 -0.470703,-0.751891 -0.470703,-1.222657 0,-1.026846 0.83253,-1.859375 1.859375,-1.859375 h 17.847656 c 0.323266,0 0.62387,0.08931 0.888672,0.234375 -0.340662,-0.385881 -0.833388,-0.634765 -1.388672,-0.634765 z"
   transform="matrix(8.5894146,0,0,8.5894146,-68.740219,-68.715316)"
   id="path1045"
   inkscape:connector-curvature="0" />

	</g>
    <g
       transform="matrix(0.05342101,0,0,0.05342101,5.7807624,38)"
       id="g1061">
		<path
   style="fill:#b9b9d5;fill-opacity:1;stroke-width:0.11642237"
   d="m 31.060547,41.525391 c -1.026845,0 -1.859375,0.832529 -1.859375,1.859375 v 1.076172 c 0,0.688508 0.379387,1.282149 0.935547,1.603515 -0.330138,-0.335569 -0.535157,-0.794802 -0.535157,-1.302734 v -1.078125 c 0,-1.026845 0.832531,-1.859375 1.859376,-1.859375 0.338113,0 0.650651,0.09813 0.923828,0.255859 -0.337137,-0.341696 -0.806277,-0.554687 -1.324219,-0.554687 z"
   transform="matrix(8.5894146,0,0,8.5894146,-68.740219,-68.715316)"
   id="path1059"
   inkscape:connector-curvature="0" />

	</g>
    <path
       inkscape:connector-curvature="0"
       style="fill:none;fill-opacity:1;stroke:#7d1a1f;stroke-width:0.45885521;stroke-miterlimit:4;stroke-dasharray:none;stroke-opacity:0.62857145"
       d="m 24.168278,55.171183 c 0.97945,0.132963 1.761956,0.920177 1.867008,1.927897 l 0.430574,4.12891 c 0.03521,0.335485 -0.228161,0.627697 -0.565782,0.627697 H 6.8224188 c -0.3376209,0 -0.6009866,-0.292212 -0.5657286,-0.627697 L 6.6872636,57.09908 C 6.792539,56.089217 7.5781532,55.300797 8.5605233,55.170343"
       id="path1141"
       sodipodi:nodetypes="cccssccc" />
    <path
       style="color:#000000;font-style:normal;font-variant:normal;font-weight:normal;font-stretch:normal;font-size:medium;line-height:normal;font-family:sans-serif;font-variant-ligatures:normal;font-variant-position:normal;font-variant-caps:normal;font-variant-numeric:normal;font-variant-alternates:normal;font-feature-settings:normal;text-indent:0;text-align:start;text-decoration:none;text-decoration-line:none;text-decoration-style:solid;text-decoration-color:#000000;letter-spacing:normal;word-spacing:normal;text-transform:none;writing-mode:lr-tb;direction:ltr;text-orientation:mixed;dominant-baseline:auto;baseline-shift:baseline;text-anchor:start;white-space:normal;shape-padding:0;clip-rule:nonzero;display:inline;overflow:visible;visibility:visible;opacity:1;isolation:auto;mix-blend-mode:normal;color-interpolation:sRGB;color-interpolation-filters:linearRGB;solid-color:#000000;solid-opacity:1;vector-effect:none;fill:#a45a00;fill-opacity:1;fill-rule:nonzero;stroke:none;stroke-width:1.35682619;stroke-linecap:round;stroke-linejoin:miter;stroke-miterlimit:4;stroke-dasharray:none;stroke-dashoffset:0;stroke-opacity:1;color-rendering:auto;image-rendering:auto;shape-rendering:auto;text-rendering:auto;enable-background:accumulate"
       d="m 25.570253,40.630352 a 0.67848098,0.67848098 0 0 0 -0.597767,0.347725 l -1.277087,2.211827 a 1.7706833,1.7706833 0 0 0 -1.763726,0.869315 1.7706833,1.7706833 0 0 0 0.129054,1.962681 L 18.3863,52.384932 c 0.374549,0.372739 0.644717,0.848738 0.768941,1.381047 l 4.080406,-7.06655 a 1.7706833,1.7706833 0 0 0 1.762829,-0.869316 1.7706833,1.7706833 0 0 0 -0.128157,-1.961786 l 1.277088,-2.211825 a 0.67848098,0.67848098 0 0 0 -0.577154,-1.02615 z"
       id="path1129"
       inkscape:connector-curvature="0" />
    <path
       inkscape:connector-curvature="0"
       id="path1074"
       d="m 25.386531,40.400924 a 0.67848098,0.67848098 0 0 0 -0.597767,0.347725 l -1.277087,2.211826 a 1.7706833,1.7706833 0 0 0 -1.763724,0.869316 1.7706833,1.7706833 0 0 0 0.129053,1.962681 l -3.697729,6.404257 c 0.387189,0.316962 0.686805,0.734292 0.866628,1.210768 l 4.006021,-6.937495 A 1.7706833,1.7706833 0 0 0 24.814754,45.600685 1.7706833,1.7706833 0 0 0 24.686597,43.6389 l 1.277088,-2.211826 a 0.67848098,0.67848098 0 0 0 -0.577154,-1.02615 z"
       style="color:#000000;font-style:normal;font-variant:normal;font-weight:normal;font-stretch:normal;font-size:medium;line-height:normal;font-family:sans-serif;font-variant-ligatures:normal;font-variant-position:normal;font-variant-caps:normal;font-variant-numeric:normal;font-variant-alternates:normal;font-feature-settings:normal;text-indent:0;text-align:start;text-decoration:none;text-decoration-line:none;text-decoration-style:solid;text-decoration-color:#000000;letter-spacing:normal;word-spacing:normal;text-transform:none;writing-mode:lr-tb;direction:ltr;text-orientation:mixed;dominant-baseline:auto;baseline-shift:baseline;text-anchor:start;white-space:normal;shape-padding:0;clip-rule:nonzero;display:inline;overflow:visible;visibility:visible;opacity:1;isolation:auto;mix-blend-mode:normal;color-interpolation:sRGB;color-interpolation-filters:linearRGB;solid-color:#000000;solid-opacity:1;vector-effect:none;fill:#ecba3d;fill-opacity:1;fill-rule:nonzero;stroke:none;stroke-width:1.35682619;stroke-linecap:round;stroke-linejoin:miter;stroke-miterlimit:4;stroke-dasharray:none;stroke-dashoffset:0;stroke-opacity:1;color-rendering:auto;image-rendering:auto;shape-rendering:auto;text-rendering:auto;enable-background:accumulate" />
    <g
       id="g1236"
       transform="matrix(0.45885524,0,0,0.45885524,2.1085901,34.329158)">
      <circle
         transform="rotate(30)"
         style="opacity:1;fill:#cfcfcf;fill-opacity:1;fill-rule:evenodd;stroke:none;stroke-width:0.99403161;stroke-linecap:round;stroke-linejoin:round;stroke-miterlimit:4;stroke-dasharray:none;stroke-opacity:0.75686275;paint-order:markers fill stroke"
         id="circle1080"
         cx="51.278812"
         cy="-3.4692421"
         r="1.5117563" />
      <path
         id="circle1086"
         d="m 46.89906,21.326068 a 1.5117563,1.5117563 0 0 0 -2.064573,0.553201 1.5117563,1.5117563 0 0 0 -0.08446,1.337465 1.5117563,1.5117563 0 0 1 0.189361,-0.945975 1.5117563,1.5117563 0 0 1 2.064573,-0.5532 1.5117563,1.5117563 0 0 1 0.638688,0.730933 1.5117563,1.5117563 0 0 0 -0.743587,-1.122424 z"
         style="opacity:1;fill:#9a9a9a;fill-opacity:1;fill-rule:evenodd;stroke:none;stroke-width:0.99403161;stroke-linecap:round;stroke-linejoin:round;stroke-miterlimit:4;stroke-dasharray:none;stroke-opacity:0.75686275;paint-order:markers fill stroke"
         inkscape:connector-curvature="0" />
    </g>
  </g>
</svg>
