<?xml version="1.0" encoding="UTF-8" standalone="no"?>
<!-- Created with Inkscape (http://www.inkscape.org/) -->

<svg
   xmlns:dc="http://purl.org/dc/elements/1.1/"
   xmlns:cc="http://creativecommons.org/ns#"
   xmlns:rdf="http://www.w3.org/1999/02/22-rdf-syntax-ns#"
   xmlns:svg="http://www.w3.org/2000/svg"
   xmlns="http://www.w3.org/2000/svg"
   xmlns:xlink="http://www.w3.org/1999/xlink"
   xmlns:sodipodi="http://sodipodi.sourceforge.net/DTD/sodipodi-0.dtd"
   xmlns:inkscape="http://www.inkscape.org/namespaces/inkscape"
   width="32"
   height="32"
   viewBox="0 0 32.000001 32.000001"
   id="svg2"
   version="1.1"
   inkscape:version="0.92.4 5da689c313, 2019-01-14"
   sodipodi:docname="com.github.artemanufrij.metronome.svg">
  <defs
     id="defs4">
    <linearGradient
       id="linearGradient996"
       inkscape:collect="always">
      <stop
         id="stop988"
         offset="0"
         style="stop-color:#ababab;stop-opacity:0.849711" />
      <stop
         style="stop-color:#dcdcdc;stop-opacity:0.09714286"
         offset="0.22236782"
         id="stop990" />
      <stop
         style="stop-color:#ececec;stop-opacity:0.18497109"
         offset="0.72553766"
         id="stop992" />
      <stop
         id="stop994"
         offset="1"
         style="stop-color:#ffffff;stop-opacity:0.53142858" />
    </linearGradient>
    <linearGradient
       inkscape:collect="always"
       id="linearGradient966">
      <stop
         style="stop-color:#836b59;stop-opacity:1"
         offset="0"
         id="stop959" />
      <stop
         id="stop962"
         offset="1"
         style="stop-color:#996428;stop-opacity:1;" />
    </linearGradient>
    <linearGradient
       inkscape:collect="always"
       id="linearGradient967">
      <stop
         style="stop-color:#a2a3a5;stop-opacity:1"
         offset="0"
         id="stop963" />
      <stop
         style="stop-color:#6a6c73;stop-opacity:1"
         offset="1"
         id="stop965" />
    </linearGradient>
    <linearGradient
       id="linearGradient1001-4"
       inkscape:collect="always">
      <stop
         id="stop954"
         offset="0"
         style="stop-color:#abacae;stop-opacity:1" />
      <stop
         style="stop-color:#d4d4d4;stop-opacity:1"
         offset="1"
         id="stop961" />
    </linearGradient>
    <linearGradient
       id="linearGradient1009-4"
       inkscape:collect="always">
      <stop
         id="stop942"
         offset="0"
         style="stop-color:#836b59;stop-opacity:1" />
      <stop
         style="stop-color:#996428;stop-opacity:1;"
         offset="0.54512882"
         id="stop955" />
      <stop
         id="stop944"
         offset="1"
         style="stop-color:#ad5f00;stop-opacity:1" />
    </linearGradient>
    <linearGradient
       inkscape:collect="always"
       id="linearGradient1192">
      <stop
         style="stop-color:#d9d9d9;stop-opacity:0.30857143"
         offset="0"
         id="stop1188" />
      <stop
         id="stop1206"
         offset="0.22236782"
         style="stop-color:#dcdcdc;stop-opacity:0.09714286" />
      <stop
         id="stop1204"
         offset="0.72553766"
         style="stop-color:#ececec;stop-opacity:0.08" />
      <stop
         style="stop-color:#ffffff;stop-opacity:0.53142858"
         offset="1"
         id="stop1190" />
    </linearGradient>
    <linearGradient
       inkscape:collect="always"
       id="linearGradient4224">
      <stop
         style="stop-color:#000000;stop-opacity:0.6"
         offset="0"
         id="stop4226" />
      <stop
         style="stop-color:#000000;stop-opacity:0;"
         offset="1"
         id="stop4228" />
    </linearGradient>
    <linearGradient
       inkscape:collect="always"
       id="linearGradient4202">
      <stop
         style="stop-color:#000000;stop-opacity:0.6"
         offset="0"
         id="stop4204" />
      <stop
         style="stop-color:#000000;stop-opacity:0;"
         offset="1"
         id="stop4206" />
    </linearGradient>
    <linearGradient
       inkscape:collect="always"
       id="linearGradient4189">
      <stop
         style="stop-color:#000000;stop-opacity:0"
         offset="0"
         id="stop4192" />
      <stop
         id="stop4198"
         offset="0.5"
         style="stop-color:#000000;stop-opacity:0.6" />
      <stop
         style="stop-color:#000000;stop-opacity:0;"
         offset="1"
         id="stop4194" />
    </linearGradient>
    <linearGradient
       inkscape:collect="always"
       id="linearGradient4207">
      <stop
         style="stop-color:#000000;stop-opacity:0.1254902"
         offset="0"
         id="stop4209" />
      <stop
         style="stop-color:#000000;stop-opacity:0"
         offset="1"
         id="stop4211" />
    </linearGradient>
    <linearGradient
       id="linearGradient4199"
       inkscape:collect="always">
      <stop
         id="stop4201"
         offset="0"
         style="stop-color:#000000;stop-opacity:0.25098041" />
      <stop
         id="stop4203"
         offset="1"
         style="stop-color:#ffffff;stop-opacity:0.50196081" />
    </linearGradient>
    <linearGradient
       inkscape:collect="always"
       id="linearGradient4187">
      <stop
         style="stop-color:#000000;stop-opacity:0.43921569"
         offset="0"
         id="stop4189" />
      <stop
         style="stop-color:#000000;stop-opacity:0.25098041"
         offset="1"
         id="stop4191" />
    </linearGradient>
    <linearGradient
       inkscape:collect="always"
       xlink:href="#linearGradient4187"
       id="linearGradient4193"
       x1="32"
       y1="1048"
       x2="32"
       y2="993"
       gradientUnits="userSpaceOnUse" />
    <linearGradient
       inkscape:collect="always"
       xlink:href="#linearGradient4199"
       id="linearGradient4197"
       gradientUnits="userSpaceOnUse"
       x1="32"
       y1="1030"
       x2="32"
       y2="993"
       gradientTransform="translate(0,1.0087664)" />
    <linearGradient
       inkscape:collect="always"
       xlink:href="#linearGradient4207"
       id="linearGradient4213"
       x1="32"
       y1="1046"
       x2="32"
       y2="993"
       gradientUnits="userSpaceOnUse" />
    <filter
       style="color-interpolation-filters:sRGB"
       inkscape:label="Drop Shadow"
       id="filter4441">
      <feFlood
         flood-opacity="0.498039"
         flood-color="rgb(0,0,0)"
         result="flood"
         id="feFlood4443" />
      <feComposite
         in="flood"
         in2="SourceGraphic"
         operator="in"
         result="composite1"
         id="feComposite4445" />
      <feGaussianBlur
         in="composite1"
         stdDeviation="1"
         result="blur"
         id="feGaussianBlur4447" />
      <feOffset
         dx="1.38778e-16"
         dy="1"
         result="offset"
         id="feOffset4449" />
      <feComposite
         in="SourceGraphic"
         in2="offset"
         operator="over"
         result="composite2"
         id="feComposite4451" />
    </filter>
    <filter
       style="color-interpolation-filters:sRGB"
       inkscape:label="Drop Shadow"
       id="filter4175">
      <feFlood
         flood-opacity="0.498039"
         flood-color="rgb(0,0,0)"
         result="flood"
         id="feFlood4177" />
      <feComposite
         in="flood"
         in2="SourceGraphic"
         operator="in"
         result="composite1"
         id="feComposite4179" />
      <feGaussianBlur
         in="composite1"
         stdDeviation="1"
         result="blur"
         id="feGaussianBlur4181" />
      <feOffset
         dx="1.38778e-16"
         dy="1"
         result="offset"
         id="feOffset4183" />
      <feComposite
         in="SourceGraphic"
         in2="offset"
         operator="over"
         result="composite2"
         id="feComposite4185" />
    </filter>
    <filter
       style="color-interpolation-filters:sRGB"
       inkscape:label="Drop Shadow"
       id="filter4187">
      <feFlood
         flood-opacity="0.498039"
         flood-color="rgb(0,0,0)"
         result="flood"
         id="feFlood4189" />
      <feComposite
         in="flood"
         in2="SourceGraphic"
         operator="in"
         result="composite1"
         id="feComposite4191" />
      <feGaussianBlur
         in="composite1"
         stdDeviation="1"
         result="blur"
         id="feGaussianBlur4193" />
      <feOffset
         dx="1.38778e-16"
         dy="1"
         result="offset"
         id="feOffset4195" />
      <feComposite
         in="SourceGraphic"
         in2="offset"
         operator="over"
         result="composite2"
         id="feComposite4197" />
    </filter>
    <linearGradient
       inkscape:collect="always"
       xlink:href="#linearGradient4189"
       id="linearGradient4196"
       x1="32"
       y1="58"
       x2="32"
       y2="62"
       gradientUnits="userSpaceOnUse"
       gradientTransform="matrix(0.95652174,0,0,1.25,1.3913043,-15.5)" />
    <radialGradient
       inkscape:collect="always"
       xlink:href="#linearGradient4202"
       id="radialGradient4208"
       cx="9"
       cy="60"
       fx="9"
       fy="60"
       r="4"
       gradientTransform="matrix(-2,0,0,-0.625,28,97)"
       gradientUnits="userSpaceOnUse" />
    <radialGradient
       inkscape:collect="always"
       xlink:href="#linearGradient4224"
       id="radialGradient4230"
       cx="56"
       cy="60"
       fx="56"
       fy="60"
       r="3"
       gradientTransform="matrix(2.6666666,0,0,0.83333334,-95.333334,9.5)"
       gradientUnits="userSpaceOnUse" />
    <radialGradient
       inkscape:collect="always"
       xlink:href="#linearGradient4203"
       id="radialGradient4209"
       cx="32"
       cy="-7"
       fx="32"
       fy="-7"
       r="28"
       gradientTransform="matrix(1,0,0,0.71428572,-9.9121094e-7,9)"
       gradientUnits="userSpaceOnUse" />
    <linearGradient
       inkscape:collect="always"
       id="linearGradient4203">
      <stop
         style="stop-color:#ffffff;stop-opacity:0.4"
         offset="0"
         id="stop4205" />
      <stop
         style="stop-color:#ffffff;stop-opacity:0"
         offset="1"
         id="stop4207" />
    </linearGradient>
    <linearGradient
       inkscape:collect="always"
       xlink:href="#linearGradient1001-4"
       id="linearGradient1015"
       gradientUnits="userSpaceOnUse"
       x1="197.56348"
       y1="434.29001"
       x2="200.45114"
       y2="271.91476"
       gradientTransform="matrix(0.05394995,0,0,0.05394995,4.8166093,37.999999)" />
    <linearGradient
       inkscape:collect="always"
       xlink:href="#linearGradient1192"
       id="linearGradient1194"
       x1="31.034418"
       y1="58.561069"
       x2="30.96361"
       y2="3.9999998"
       gradientUnits="userSpaceOnUse" />
    <linearGradient
       id="linearGradient4170">
      <stop
         id="stop1245"
         offset="0"
         style="stop-color:#575d5e;stop-opacity:1" />
      <stop
         id="stop1247"
         offset="1"
         style="stop-color:#292d2e;stop-opacity:1" />
    </linearGradient>
    <linearGradient
       xlink:href="#linearGradient3924-2-2-5-8"
       gradientUnits="userSpaceOnUse"
       gradientTransform="matrix(1.4324324,0,0,1.4362832,59.562469,-7.4574321)"
       y2="43"
       y1="5"
       x2="24"
       x1="24"
       id="linearGradient3180" />
    <linearGradient
       id="linearGradient3924-2-2-5-8">
      <stop
         id="stop1251"
         style="stop-color:#ffffff;stop-opacity:1"
         offset="0" />
      <stop
         id="stop1253"
         style="stop-color:#ffffff;stop-opacity:0.23529412"
         offset=".063" />
      <stop
         id="stop1255"
         style="stop-color:#ffffff;stop-opacity:0.15686275"
         offset=".951" />
      <stop
         id="stop1257"
         style="stop-color:#ffffff;stop-opacity:0.39215687"
         offset="1" />
    </linearGradient>
    <radialGradient
       xlink:href="#linearGradient3688-166-749-4-0-3-8"
       gradientUnits="userSpaceOnUse"
       gradientTransform="matrix(2.003784,0,0,1.4,27.98813,-17.4)"
       fy="43.5"
       fx="4.993"
       r="2.5"
       cy="43.5"
       cx="4.993"
       id="radialGradient3337-2-2" />
    <linearGradient
       id="linearGradient3688-166-749-4-0-3-8">
      <stop
         id="stop1261"
         style="stop-color:#181818;stop-opacity:1"
         offset="0" />
      <stop
         id="stop1263"
         style="stop-color:#181818;stop-opacity:0"
         offset="1" />
    </linearGradient>
    <radialGradient
       xlink:href="#linearGradient3688-166-749-4-0-3-8"
       gradientUnits="userSpaceOnUse"
       gradientTransform="matrix(2.003784,0,0,1.4,-20.01187,-104.4)"
       fy="43.5"
       fx="4.993"
       r="2.5"
       cy="43.5"
       cx="4.993"
       id="radialGradient3339-1-4" />
    <linearGradient
       id="linearGradient3702-501-757-8-4-1-1">
      <stop
         id="stop1272"
         style="stop-color:#181818;stop-opacity:0"
         offset="0" />
      <stop
         id="stop1274"
         style="stop-color:#181818;stop-opacity:1"
         offset=".5" />
      <stop
         id="stop1276"
         style="stop-color:#181818;stop-opacity:0"
         offset="1" />
    </linearGradient>
    <linearGradient
       xlink:href="#linearGradient3702-501-757-8-4-1-1"
       gradientUnits="userSpaceOnUse"
       y2="39.999001"
       y1="47.028"
       x2="25.058001"
       x1="25.058001"
       id="linearGradient4159" />
    <linearGradient
       xlink:href="#linearGradient4170"
       gradientUnits="userSpaceOnUse"
       y2="59"
       y1="5"
       x2="32"
       x1="32"
       id="linearGradient4166"
       gradientTransform="translate(61.94085,-4.986654)" />
    <linearGradient
       inkscape:collect="always"
       xlink:href="#linearGradient1009-4"
       id="linearGradient947"
       gradientUnits="userSpaceOnUse"
       x1="14.868495"
       y1="180.15988"
       x2="330.28186"
       y2="224.68636" />
    <linearGradient
       inkscape:collect="always"
       xlink:href="#linearGradient967"
       id="linearGradient969"
       x1="51.130859"
       y1="13.732422"
       x2="35.942432"
       y2="39.870773"
       gradientUnits="userSpaceOnUse"
       gradientTransform="matrix(0.46339842,0,0,0.46339842,1.1080784,34.292812)" />
    <clipPath
       clipPathUnits="userSpaceOnUse"
       id="clipPath946">
      <path
         inkscape:connector-curvature="0"
         style="fill:#fef6ef;fill-opacity:1;stroke:none;stroke-width:0.11642237;stroke-opacity:1"
         d="m 22.353516,8 c -1.657854,0 -3.064186,1.2170306 -3.302735,2.857422 l -5.021484,34.583984 c -2.123795,0.298924 -3.82266,1.993369 -4.0507814,4.181641 l -0.9375,8.998047 c -0.076839,0.731132 0.4966325,1.36914 1.2324224,1.36914 h 41.576171 c 0.73579,0 1.309142,-0.638008 1.232422,-1.36914 l -0.9375,-8.998047 C 51.916411,47.434775 50.217545,45.74033 48.09375,45.441406 L 43.072266,10.857422 C 42.834764,9.2170306 41.427385,8 39.769531,8 Z"
         id="path948" />
    </clipPath>
    <linearGradient
       inkscape:collect="always"
       xlink:href="#linearGradient966"
       id="linearGradient957"
       gradientUnits="userSpaceOnUse"
       x1="-65.657272"
       y1="146.33907"
       x2="330.93127"
       y2="229.13458" />
    <linearGradient
       inkscape:collect="always"
       xlink:href="#linearGradient996"
       id="linearGradient976"
       x1="30.274057"
       y1="60"
       x2="30.960426"
       y2="37.526676"
       gradientUnits="userSpaceOnUse" />
    <clipPath
       clipPathUnits="userSpaceOnUse"
       id="clipPath982">
      <path
         inkscape:connector-curvature="0"
         style="fill:url(#linearGradient986);fill-opacity:1;stroke-width:0.11642237"
         d="m 51.849659,59.989574 h -41.57664 c -0.7357894,0 -1.3097517,-0.636831 -1.2329129,-1.367963 l 0.9383643,-8.998285 c 0.2514726,-2.412272 2.2842066,-4.24476 4.7104486,-4.24476 h 10.113612 v -1.593822 c 0,-3.4553 2.803334,-6.258867 6.258866,-6.258867 3.456581,0 6.258867,2.802287 6.258867,6.258867 v 1.593822 h 10.113611 c 2.426242,0 4.458977,1.832488 4.710449,4.24476 l 0.938365,8.998285 c 0.07672,0.731132 -0.49724,1.367963 -1.23303,1.367963 z"
         id="path984" />
    </clipPath>
    <linearGradient
       inkscape:collect="always"
       xlink:href="#linearGradient1001-4"
       id="linearGradient986"
       gradientUnits="userSpaceOnUse"
       gradientTransform="matrix(0.11642237,0,0,0.11642237,8.0028992,8)"
       x1="197.56348"
       y1="434.29001"
       x2="200.45114"
       y2="271.91476" />
  </defs>
  <sodipodi:namedview
     id="base"
     pagecolor="#ffffff"
     bordercolor="#666666"
     borderopacity="1.0"
     inkscape:pageopacity="0.0"
     inkscape:pageshadow="2"
     inkscape:zoom="7.9999995"
     inkscape:cx="31.241296"
     inkscape:cy="9.1990733"
     inkscape:document-units="px"
     inkscape:current-layer="layer6"
     showgrid="true"
     inkscape:window-width="1920"
     inkscape:window-height="1054"
     inkscape:window-x="2560"
     inkscape:window-y="190"
     inkscape:window-maximized="1"
     units="px"
     showguides="true"
     inkscape:guide-bbox="true"
     inkscape:snap-center="true"
     inkscape:snap-grids="false"
     inkscape:object-paths="true"
     inkscape:snap-intersection-paths="true"
     inkscape:snap-page="true">
    <inkscape:grid
       type="xygrid"
       id="grid964" />
    <sodipodi:guide
       position="48.000001,1.9843752"
       orientation="0,1"
       id="guide966"
       inkscape:locked="false" />
    <sodipodi:guide
       position="31.359378,26.000002"
       orientation="0,1"
       id="guide968"
       inkscape:locked="false" />
  </sodipodi:namedview>
  <metadata
     id="metadata7">
    <rdf:RDF>
      <cc:Work
         rdf:about="">
        <dc:format>image/svg+xml</dc:format>
        <dc:type
           rdf:resource="http://purl.org/dc/dcmitype/StillImage" />
        <dc:title></dc:title>
      </cc:Work>
    </rdf:RDF>
  </metadata>
  <g
     inkscape:groupmode="layer"
     id="layer6"
     inkscape:label="Shadow 1"
     style="display:none"
     transform="translate(0,-32)">
    <rect
       style="opacity:0.07000002;fill:#51535c;fill-opacity:1;fill-rule:evenodd;stroke:none;stroke-width:1;stroke-linecap:round;stroke-linejoin:round;stroke-miterlimit:4;stroke-dasharray:none;stroke-dashoffset:0;stroke-opacity:0.63005784;paint-order:markers fill stroke"
       id="rect1365"
       width="32"
       height="32"
       x="0"
       y="32" />
  </g>
  <g
     inkscape:groupmode="layer"
     id="layer3"
     inkscape:label="Shadow"
     style="display:none"
     transform="translate(0,-32)">
    <rect
       style="opacity:1;fill:url(#linearGradient4196);fill-opacity:1;stroke:none;stroke-width:1;stroke-miterlimit:4;stroke-dasharray:none;stroke-opacity:0.25098039"
       id="rect4187"
       width="44"
       height="5"
       x="10"
       y="57"
       ry="0" />
    <rect
       style="opacity:1;fill:url(#radialGradient4208);fill-opacity:1;stroke:none;stroke-width:1;stroke-miterlimit:4;stroke-dasharray:none;stroke-opacity:0.25098039"
       id="rect4200"
       width="8"
       height="5"
       x="2"
       y="57" />
    <rect
       style="opacity:1;fill:url(#radialGradient4230);fill-opacity:1;stroke:none;stroke-width:1;stroke-miterlimit:4;stroke-dasharray:none;stroke-opacity:0.25098039"
       id="rect4222"
       width="8"
       height="5"
       x="54"
       y="57" />
  </g>
  <g
     inkscape:label="Layer 1"
     inkscape:groupmode="layer"
     id="layer1"
     transform="translate(0,-1020.3622)"
     style="display:none">
    <rect
       style="opacity:1;fill:#68b723;fill-opacity:1;stroke:none;stroke-width:1;stroke-miterlimit:4;stroke-dasharray:none;stroke-opacity:1"
       id="rect4155"
       width="56"
       height="56"
       x="4"
       y="992.36218"
       rx="4"
       ry="4" />
    <rect
       ry="3.5"
       rx="3.5"
       y="992.85339"
       x="4.5"
       height="55"
       width="55"
       id="rect4157"
       style="opacity:1;fill:none;fill-opacity:1;stroke:url(#linearGradient4193);stroke-width:1;stroke-miterlimit:4;stroke-dasharray:none;stroke-opacity:1" />
    <rect
       style="opacity:1;fill:none;fill-opacity:1;stroke:url(#linearGradient4197);stroke-width:1;stroke-miterlimit:4;stroke-dasharray:none;stroke-opacity:1"
       id="rect4195"
       width="53"
       height="53"
       x="5.5"
       y="993.86218"
       rx="2.5"
       ry="2.5" />
    <rect
       ry="2"
       rx="2"
       y="994.36218"
       x="6"
       height="52"
       width="52"
       id="rect4205"
       style="opacity:1;fill:url(#linearGradient4213);fill-opacity:1;stroke:none;stroke-width:1;stroke-miterlimit:4;stroke-dasharray:none;stroke-opacity:1" />
  </g>
  <g
     inkscape:groupmode="layer"
     id="layer2"
     inkscape:label="Icon"
     style="display:none"
     transform="translate(0,-32)">
    <path
       sodipodi:nodetypes="ccccc"
       inkscape:connector-curvature="0"
       id="path4806"
       d="M 27,12 16,52 H 48 L 37,12 Z"
       style="display:inline;fill:none;fill-opacity:1;fill-rule:evenodd;stroke:#ffffff;stroke-width:4;stroke-linecap:round;stroke-linejoin:round;stroke-miterlimit:4;stroke-dasharray:none;stroke-opacity:1;filter:url(#filter4187)" />
    <rect
       inkscape:transform-center-x="-9.4999991"
       transform="rotate(30)"
       inkscape:transform-center-y="-16.454483"
       ry="1.9000005"
       y="-11.349068"
       x="49.226818"
       height="38"
       width="4.000001"
       id="rect4808"
       style="display:inline;fill:#ffffff;fill-opacity:1;stroke:none" />
  </g>
  <g
     inkscape:groupmode="layer"
     id="layer4"
     inkscape:label="Spot"
     style="display:none"
     transform="translate(0,-32)">
    <rect
       style="opacity:1;fill:url(#radialGradient4209);fill-opacity:1;fill-rule:evenodd;stroke:none;stroke-width:1px;stroke-linecap:butt;stroke-linejoin:miter;stroke-opacity:1"
       id="rect3384"
       width="56"
       height="20"
       x="4"
       y="4"
       ry="4" />
  </g>
  <g
     inkscape:groupmode="layer"
     id="layer5"
     inkscape:label="New"
     transform="translate(0,-32)">
    <g
       transform="matrix(0.64777828,0,0,0.33099887,-0.40965026,47.698267)"
       style="opacity:0.6;stroke-width:2.15797019"
       id="g1289">
      <rect
         width="5"
         height="7"
         x="38"
         y="40"
         style="fill:url(#radialGradient3337-2-2);fill-opacity:1;stroke:none;stroke-width:2.15797019"
         id="rect1283" />
      <rect
         width="5"
         height="7"
         x="-10"
         y="-47"
         transform="scale(-1)"
         style="fill:url(#radialGradient3339-1-4);fill-opacity:1;stroke:none;stroke-width:2.15797019"
         id="rect1285" />
      <rect
         width="28"
         height="7"
         x="10"
         y="40"
         style="fill:url(#linearGradient4159);fill-opacity:1;stroke:none;stroke-width:2.15797019"
         id="rect1287" />
    </g>
    <g
       id="g883"
       transform="matrix(0.05394995,0,0,0.05394995,4.8166092,37.999999)"
       style="fill:url(#linearGradient947);fill-opacity:1;stroke-width:2.15797043">
      <path
         inkscape:connector-curvature="0"
         style="fill:url(#linearGradient957);fill-opacity:1;stroke-width:2.15797043"
         d="M 360.718,434.29 H 35.399 L 94.899,24.54 C 96.948,10.45 109.019,0 123.259,0 h 149.6 c 14.24,0 26.32,10.45 28.36,24.54 z"
         id="path881" />
    </g>
    <path
       id="path889"
       d="m 18.101868,46.430218 c 0,0.447244 -0.362004,0.809248 -0.809249,0.809248 h -0.98135 v 8.171798 c 0,0.446706 -0.362543,0.809249 -0.80925,0.809249 -0.446704,0 -0.809248,-0.362543 -0.809248,-0.809249 v -5.82012 h -0.981349 c -0.446706,0 -0.809249,-0.362544 -0.809249,-0.809249 0,-0.447245 0.362543,-0.809249 0.809249,-0.809249 h 0.981349 v -3.084858 h -0.981349 c -0.446706,0 -0.809249,-0.362003 -0.809249,-0.80925 0,-0.446704 0.362543,-0.809248 0.809249,-0.809248 h 0.981349 v -3.048711 c 0,-0.446706 0.362544,-0.80925 0.809248,-0.80925 0.446707,0 0.80925,0.362544 0.80925,0.80925 v 0.697572 h 0.98135 c 0.447245,0 0.809249,0.362004 0.809249,0.80925 0,0.446704 -0.362004,0.809249 -0.809249,0.809249 h -0.98135 v 3.084317 h 0.98135 c 0.447245,0 0.809249,0.362544 0.809249,0.809251 z"
       style="fill:#3a1f1a;fill-opacity:1;stroke-width:0.11642238"
       inkscape:connector-curvature="0" />
    <g
       id="g1158" />
    <path
       style="fill:#53362b;fill-opacity:1;stroke-width:0.11642238"
       d="m 15.502165,39.411011 c -0.446707,0 -0.809137,0.362431 -0.809137,0.809137 v 3.049197 h -0.982007 c -0.446707,0 -0.809136,0.362432 -0.809136,0.809139 0,0.226607 0.09353,0.430594 0.243464,0.577436 -0.02834,-0.08248 -0.04706,-0.169425 -0.04706,-0.261566 0,-0.446705 0.362432,-0.810042 0.809138,-0.810042 h 0.982006 v -3.048293 c 0,-0.446706 0.362431,-0.809138 0.809137,-0.809138 0.220346,0 0.419693,0.08869 0.565672,0.2317 -0.109427,-0.317397 -0.407659,-0.54757 -0.762073,-0.54757 z m 0.809104,1.50714 0.196435,0.315681 h 0.981101 c 0.220611,0 0.419757,0.08785 0.565672,0.230794 -0.109385,-0.317379 -0.407335,-0.546666 -0.762074,-0.546666 z m -1.618498,3.969637 2.57e-4,3.085232 h -0.982007 c -0.446707,0 -0.809136,0.361892 -0.809136,0.809137 0,0.226597 0.09413,0.43049 0.244369,0.577439 -0.02858,-0.08276 -0.04797,-0.170045 -0.04797,-0.262472 0,-0.447245 0.362432,-0.809137 0.809138,-0.809137 h 0.982006 v -3.084495 z m 1.618498,0.733179 0.196435,0.315635 h 0.981101 c 0.22082,0 0.419721,0.08935 0.565672,0.232604 -0.108915,-0.318099 -0.406728,-0.548475 -0.762074,-0.548475 z m -1.618498,3.970177 2.57e-4,5.819784 c 10e-6,0.226359 0.0935,0.431426 0.243465,0.578342 -0.02856,-0.08272 -0.04706,-0.170077 -0.04706,-0.262472 v -5.820537 z"
       id="path1025"
       inkscape:connector-curvature="0"
       sodipodi:nodetypes="sscsscsscsscsccscscccsscsscccccscsccscscc" />
    <path
       id="path903"
       d="M 25.135129,62.091886 H 5.8685792 c -0.3409636,0 -0.6069368,-0.295107 -0.5713299,-0.633912 l 0.4348366,-4.169792 c 0.116532,-1.117843 1.0584977,-1.967015 2.1828144,-1.967015 h 4.6866317 v -0.738574 c 0,-1.601181 1.299061,-2.90035 2.900349,-2.90035 1.601774,0 2.900349,1.298576 2.900349,2.90035 v 0.738574 h 4.686631 c 1.124317,0 2.066283,0.849172 2.182815,1.967015 l 0.434836,4.169792 c 0.03556,0.338805 -0.230419,0.633912 -0.571383,0.633912 z"
       style="fill:url(#linearGradient1015);fill-opacity:1;stroke-width:0.11642238"
       inkscape:connector-curvature="0" />
    <path
       style="fill:none;fill-opacity:1;stroke:url(#linearGradient1194);stroke-width:4.31594086;stroke-miterlimit:4;stroke-dasharray:none;stroke-opacity:1"
       d="m 22.353516,8 c -1.657854,0 -3.064186,1.2170306 -3.302735,2.857422 l -5.021484,34.583984 c -2.123795,0.298924 -3.82266,1.993369 -4.0507814,4.181641 l -0.9375,8.998047 c -0.076839,0.731132 0.4966325,1.36914 1.2324224,1.36914 h 41.576171 c 0.73579,0 1.309142,-0.638008 1.232422,-1.36914 l -0.9375,-8.998047 C 51.916411,47.434775 50.217545,45.74033 48.09375,45.441406 L 43.072266,10.857422 C 42.834764,9.2170306 41.427385,8 39.769531,8 Z"
       id="path1169"
       mask="none"
       clip-path="url(#clipPath946)"
       inkscape:connector-curvature="0"
       transform="matrix(0.46339841,0,0,0.46339841,1.1080784,34.292812)" />
    <g
       style="fill:none;fill-opacity:1;stroke:#4e3b31;stroke-width:2.15797043;stroke-opacity:0.76300581"
       transform="matrix(0.05394995,0,0,0.05394995,4.8166092,37.999999)"
       id="g1145">
      <path
         id="path1143"
         d="M 51.555528,323.02719 94.899,24.54 C 96.948,10.45 109.019,0 123.259,0 h 149.6 c 14.24,0 26.32,10.45 28.36,24.54 l 43.28046,298.05825"
         style="fill:none;fill-opacity:1;stroke:#4e3b31;stroke-width:18.53569984;stroke-miterlimit:4;stroke-dasharray:none;stroke-opacity:0.76300581"
         inkscape:connector-curvature="0"
         sodipodi:nodetypes="ccsscc" />
    </g>
    <g
       id="g913"
       transform="matrix(0.05394995,0,0,0.05394995,4.8166092,37.999999)"
       style="stroke-width:2.15797043">
      <path
         inkscape:connector-curvature="0"
         style="fill:#303030;fill-opacity:1;stroke-width:2.15797043"
         d="m 214.029,303.93 v 9.25 c 0,8.82 -7.15,15.97 -15.97,15.97 -8.82,0 -15.97,-7.15 -15.97,-15.97 v -9.25 c 0,-8.82 7.15,-15.97 15.97,-15.97 8.82,0 15.97,7.15 15.97,15.97 z"
         id="path911" />
    </g>
    <g
       id="g921"
       transform="matrix(0.05394995,0,0,0.05394995,4.8166092,37.999999)"
       style="fill:#303030;fill-opacity:1;stroke-width:2.15797043">
      <path
         inkscape:connector-curvature="0"
         style="fill:#303030;fill-opacity:1;stroke-width:2.15797043"
         d="m 290.678,383.27 c 0,8.81 -7.15,15.96 -15.97,15.96 h -153.3 c -8.82,0 -15.97,-7.15 -15.97,-15.96 0,-8.82 7.15,-15.97 15.97,-15.97 h 153.3 c 8.821,0 15.97,7.15 15.97,15.97 z"
         id="path919" />
    </g>
    <g
       transform="matrix(0.05394995,0,0,0.05394995,4.8166092,37.999999)"
       id="g1047"
       style="fill:#a1a4e8;fill-opacity:1;stroke-width:2.15797043">
      <path
         style="fill:#494949;fill-opacity:1;stroke-width:0.25123599"
         d="m 22.136719,50.761719 c -1.026846,0 -1.859375,0.832529 -1.859375,1.859375 0,0.702047 0.395315,1.307045 0.970703,1.623047 -0.289031,-0.327541 -0.470703,-0.751891 -0.470703,-1.222657 0,-1.026846 0.83253,-1.859375 1.859375,-1.859375 h 17.847656 c 0.323266,0 0.62387,0.08931 0.888672,0.234375 -0.340662,-0.385881 -0.833388,-0.634765 -1.388672,-0.634765 z"
         transform="matrix(8.5894146,0,0,8.5894146,-68.740219,-68.715316)"
         id="path1045"
         inkscape:connector-curvature="0" />
    </g>
    <g
       transform="matrix(0.05394995,0,0,0.05394995,4.8166092,37.999999)"
       id="g1061"
       style="fill:#494949;fill-opacity:1;stroke-width:2.15797043">
      <path
         style="fill:#494949;fill-opacity:1;stroke-width:0.25123599"
         d="m 31.060547,41.525391 c -1.026845,0 -1.859375,0.832529 -1.859375,1.859375 v 1.076172 c 0,0.688508 0.379387,1.282149 0.935547,1.603515 -0.330138,-0.335569 -0.535157,-0.794802 -0.535157,-1.302734 v -1.078125 c 0,-1.026845 0.832531,-1.859375 1.859376,-1.859375 0.338113,0 0.650651,0.09813 0.923828,0.255859 -0.337137,-0.341696 -0.806277,-0.554687 -1.324219,-0.554687 z"
         transform="matrix(8.5894146,0,0,8.5894146,-68.740219,-68.715316)"
         id="path1059"
         inkscape:connector-curvature="0" />
    </g>
    <g
       id="g1105" />
    <path
       inkscape:connector-curvature="0"
       style="fill:none;fill-opacity:1;stroke:#85878a;stroke-width:1;stroke-miterlimit:4;stroke-dasharray:none;stroke-opacity:0.76878614"
       d="m 23.386184,55.341197 c 0.989146,0.134278 1.7794,0.929288 1.885492,1.946985 l 0.434836,4.169792 c 0.03556,0.338805 -0.230419,0.633912 -0.571383,0.633912 H 5.8685792 c -0.3409636,0 -0.6069368,-0.295107 -0.5713299,-0.633912 L 5.7320859,57.288182 C 5.8384036,56.26832 6.6317965,55.472094 7.6238926,55.340348"
       id="path1141"
       sodipodi:nodetypes="cccssccc" />
    <path
       style="color:#000000;font-style:normal;font-variant:normal;font-weight:normal;font-stretch:normal;font-size:medium;line-height:normal;font-family:sans-serif;font-variant-ligatures:normal;font-variant-position:normal;font-variant-caps:normal;font-variant-numeric:normal;font-variant-alternates:normal;font-feature-settings:normal;text-indent:0;text-align:start;text-decoration:none;text-decoration-line:none;text-decoration-style:solid;text-decoration-color:#000000;letter-spacing:normal;word-spacing:normal;text-transform:none;writing-mode:lr-tb;direction:ltr;text-orientation:mixed;dominant-baseline:auto;baseline-shift:baseline;text-anchor:start;white-space:normal;shape-padding:0;clip-rule:nonzero;display:inline;overflow:visible;visibility:visible;opacity:1;isolation:auto;mix-blend-mode:normal;color-interpolation:sRGB;color-interpolation-filters:linearRGB;solid-color:#000000;solid-opacity:1;vector-effect:none;fill:none;fill-opacity:1;fill-rule:nonzero;stroke:#444447;stroke-width:1;stroke-linecap:round;stroke-linejoin:miter;stroke-miterlimit:4;stroke-dasharray:none;stroke-dashoffset:0;stroke-opacity:0.63005784;color-rendering:auto;image-rendering:auto;shape-rendering:auto;text-rendering:auto;enable-background:accumulate"
       d="m 24.616498,40.424695 a 0.68519868,0.68519868 0 0 0 -0.603686,0.351168 l -1.289732,2.233726 a 1.7882151,1.7882151 0 0 0 -1.781187,0.877922 1.7882151,1.7882151 0 0 0 0.130331,1.982116 l -3.73434,6.467666 c 0.08435,0.06905 0.162237,0.145481 0.238034,0.223553 0.05058,0.05191 0.09646,0.108233 0.143002,0.163819 0.03806,0.04565 0.0779,0.08959 0.113135,0.137571 0.03873,0.05253 0.07254,0.108658 0.107704,0.163819 0.03513,0.05532 0.07264,0.108768 0.104083,0.166534 0.03154,0.05781 0.05652,0.119089 0.08417,0.179204 0.02707,0.05885 0.05639,0.116531 0.07965,0.177395 0.04598,0.120841 0.086,0.24497 0.115849,0.37289 l 4.120807,-7.136516 a 1.7882151,1.7882151 0 0 0 1.780282,-0.877923 1.7882151,1.7882151 0 0 0 -0.129425,-1.98121 l 1.289732,-2.233724 A 0.68519868,0.68519868 0 0 0 25.22652,40.808447 0.68519868,0.68519868 0 0 0 24.616498,40.424695 Z"
       id="path999"
       inkscape:connector-curvature="0" />
    <path
       style="color:#000000;font-style:normal;font-variant:normal;font-weight:normal;font-stretch:normal;font-size:medium;line-height:normal;font-family:sans-serif;font-variant-ligatures:normal;font-variant-position:normal;font-variant-caps:normal;font-variant-numeric:normal;font-variant-alternates:normal;font-feature-settings:normal;text-indent:0;text-align:start;text-decoration:none;text-decoration-line:none;text-decoration-style:solid;text-decoration-color:#000000;letter-spacing:normal;word-spacing:normal;text-transform:none;writing-mode:lr-tb;direction:ltr;text-orientation:mixed;dominant-baseline:auto;baseline-shift:baseline;text-anchor:start;white-space:normal;shape-padding:0;clip-rule:nonzero;display:inline;overflow:visible;visibility:visible;opacity:1;isolation:auto;mix-blend-mode:normal;color-interpolation:sRGB;color-interpolation-filters:linearRGB;solid-color:#000000;solid-opacity:1;vector-effect:none;fill:#51535c;fill-opacity:1;fill-rule:nonzero;stroke:none;stroke-width:2.95698094;stroke-linecap:round;stroke-linejoin:miter;stroke-miterlimit:4;stroke-dasharray:none;stroke-dashoffset:0;stroke-opacity:1;color-rendering:auto;image-rendering:auto;shape-rendering:auto;text-rendering:auto;enable-background:accumulate"
       d="m 24.802038,40.656393 a 0.68519868,0.68519868 0 0 0 -0.603685,0.35117 l -1.289732,2.233726 a 1.7882151,1.7882151 0 0 0 -1.781188,0.877922 1.7882151,1.7882151 0 0 0 0.130332,1.982115 l -3.710809,6.426032 c 0.378257,0.37643 0.6511,0.857141 0.776554,1.39472 l 4.120807,-7.136516 a 1.7882151,1.7882151 0 0 0 1.780282,-0.877923 1.7882151,1.7882151 0 0 0 -0.129425,-1.98121 l 1.289732,-2.233724 a 0.68519868,0.68519868 0 0 0 -0.582868,-1.036312 z"
       id="path1129"
       inkscape:connector-curvature="0" />
    <path
       inkscape:connector-curvature="0"
       id="path1074"
       d="m 24.616498,40.424695 a 0.68519868,0.68519868 0 0 0 -0.603686,0.351168 l -1.289732,2.233726 a 1.7882151,1.7882151 0 0 0 -1.781187,0.877922 1.7882151,1.7882151 0 0 0 0.130331,1.982116 l -3.73434,6.467666 c 0.391022,0.320101 0.693604,0.741562 0.875207,1.222756 l 4.045686,-7.006186 a 1.7882151,1.7882151 0 0 0 1.780282,-0.877923 1.7882151,1.7882151 0 0 0 -0.129425,-1.98121 l 1.289732,-2.233724 a 0.68519868,0.68519868 0 0 0 -0.582868,-1.036311 z"
       style="color:#000000;font-style:normal;font-variant:normal;font-weight:normal;font-stretch:normal;font-size:medium;line-height:normal;font-family:sans-serif;font-variant-ligatures:normal;font-variant-position:normal;font-variant-caps:normal;font-variant-numeric:normal;font-variant-alternates:normal;font-feature-settings:normal;text-indent:0;text-align:start;text-decoration:none;text-decoration-line:none;text-decoration-style:solid;text-decoration-color:#000000;letter-spacing:normal;word-spacing:normal;text-transform:none;writing-mode:lr-tb;direction:ltr;text-orientation:mixed;dominant-baseline:auto;baseline-shift:baseline;text-anchor:start;white-space:normal;shape-padding:0;clip-rule:nonzero;display:inline;overflow:visible;visibility:visible;opacity:1;isolation:auto;mix-blend-mode:normal;color-interpolation:sRGB;color-interpolation-filters:linearRGB;solid-color:#000000;solid-opacity:1;vector-effect:none;fill:url(#linearGradient969);fill-opacity:1;fill-rule:nonzero;stroke:none;stroke-width:2.95698094;stroke-linecap:round;stroke-linejoin:miter;stroke-miterlimit:4;stroke-dasharray:none;stroke-dashoffset:0;stroke-opacity:1;color-rendering:auto;image-rendering:auto;shape-rendering:auto;text-rendering:auto;enable-background:accumulate" />
    <circle
       r="0.70054549"
       cy="27.536764"
       cx="41.868549"
       id="circle1080"
       style="opacity:1;fill:#303030;fill-opacity:1;fill-rule:evenodd;stroke:none;stroke-width:0.99403155;stroke-linecap:round;stroke-linejoin:round;stroke-miterlimit:4;stroke-dasharray:none;stroke-opacity:0.75686275;paint-order:markers fill stroke"
       transform="rotate(30)" />
    <path
       inkscape:connector-curvature="0"
       style="opacity:1;fill:#787a80;fill-opacity:1;fill-rule:evenodd;stroke:none;stroke-width:0.99403155;stroke-linecap:round;stroke-linejoin:round;stroke-miterlimit:4;stroke-dasharray:none;stroke-opacity:0.75686275;paint-order:markers fill stroke"
       d="m 22.841029,44.175278 a 0.7005455,0.7005455 0 0 0 -0.95672,0.256352 0.7005455,0.7005455 0 0 0 -0.03914,0.61978 0.7005455,0.7005455 0 0 1 0.08775,-0.438364 0.7005455,0.7005455 0 0 1 0.95672,-0.256352 0.7005455,0.7005455 0 0 1 0.295967,0.338713 0.7005455,0.7005455 0 0 0 -0.344577,-0.520129 z"
       id="circle1086" />
    <path
       inkscape:connector-curvature="0"
       style="fill:none;fill-opacity:1;stroke:#85878a;stroke-width:1;stroke-miterlimit:4;stroke-dasharray:none;stroke-opacity:0.76878614"
       d="m 7.6134388,55.321167 h 4.9880932 v -0.738574 c 0,-1.601181 1.299061,-2.90035 2.900349,-2.90035 1.601773,0 2.900349,1.298576 2.900349,2.90035 v 0.738574 l 4.994737,0.02152"
       id="path973"
       sodipodi:nodetypes="ccssscc" />
    <path
       inkscape:connector-curvature="0"
       style="fill:none;fill-opacity:1;stroke:url(#linearGradient976);stroke-width:4.31594086;stroke-miterlimit:4;stroke-dasharray:none;stroke-opacity:0.53333285"
       d="m 51.849659,59.989574 h -41.57664 c -0.7357894,0 -1.3097517,-0.636831 -1.2329129,-1.367963 l 0.9383643,-8.998285 c 0.2514726,-2.412272 2.2842066,-4.24476 4.7104486,-4.24476 h 10.113612 v -1.593822 c 0,-3.4553 2.803334,-6.258867 6.258866,-6.258867 3.456581,0 6.258867,2.802287 6.258867,6.258867 v 1.593822 h 10.113611 c 2.426242,0 4.458977,1.832488 4.710449,4.24476 l 0.938365,8.998285 c 0.07672,0.731132 -0.49724,1.367963 -1.23303,1.367963 z"
       id="path968"
       clip-path="url(#clipPath982)"
       transform="matrix(0.46339841,0,0,0.46339841,1.1080784,34.292812)" />
  </g>
</svg>
