<?xml version="1.0" encoding="UTF-8" standalone="no"?>
<svg
   xmlns:dc="http://purl.org/dc/elements/1.1/"
   xmlns:cc="http://creativecommons.org/ns#"
   xmlns:rdf="http://www.w3.org/1999/02/22-rdf-syntax-ns#"
   xmlns:svg="http://www.w3.org/2000/svg"
   xmlns="http://www.w3.org/2000/svg"
   xmlns:xlink="http://www.w3.org/1999/xlink"
   xmlns:sodipodi="http://sodipodi.sourceforge.net/DTD/sodipodi-0.dtd"
   xmlns:inkscape="http://www.inkscape.org/namespaces/inkscape"
   version="1.1"
   x="0px"
   y="0px"
   viewBox="0 0 100 100"
   enable-background="new 0 0 100 100"
   xml:space="preserve"
   id="svg2"
   inkscape:version="0.91 r"
   sodipodi:docname="metronome.svg"
   width="100"
   height="100"><metadata
     id="metadata14"><rdf:RDF><cc:Work
         rdf:about=""><dc:format>image/svg+xml</dc:format><dc:type
           rdf:resource="http://purl.org/dc/dcmitype/StillImage" /><dc:title /></cc:Work></rdf:RDF></metadata><defs
     id="defs12"><linearGradient
       inkscape:collect="always"
       id="linearGradient4205"><stop
         style="stop-color:#f69760;stop-opacity:1"
         offset="0"
         id="stop4207" /><stop
         style="stop-color:#f37329;stop-opacity:1"
         offset="1"
         id="stop4209" /></linearGradient><linearGradient
       inkscape:collect="always"
       id="linearGradient4181"><stop
         style="stop-color:#ffffff;stop-opacity:1;"
         offset="0"
         id="stop4183" /><stop
         style="stop-color:#bfbfbf;stop-opacity:1"
         offset="1"
         id="stop4185" /></linearGradient><linearGradient
       inkscape:collect="always"
       id="linearGradient4171"><stop
         style="stop-color:#2f2f2f;stop-opacity:1"
         offset="0"
         id="stop4173" /><stop
         style="stop-color:#7f7f7f;stop-opacity:1"
         offset="1"
         id="stop4175" /></linearGradient><linearGradient
       inkscape:collect="always"
       id="linearGradient4163"><stop
         style="stop-color:#000000;stop-opacity:0.50196081"
         offset="0"
         id="stop4165" /><stop
         style="stop-color:#000000;stop-opacity:0;"
         offset="1"
         id="stop4167" /></linearGradient><filter
       style="color-interpolation-filters:sRGB;"
       inkscape:label="Drop Shadow"
       id="filter4478"><feFlood
         flood-opacity="0.498039"
         flood-color="rgb(0,0,0)"
         result="flood"
         id="feFlood4480" /><feComposite
         in="flood"
         in2="SourceGraphic"
         operator="in"
         result="composite1"
         id="feComposite4482" /><feGaussianBlur
         in="composite1"
         stdDeviation="1"
         result="blur"
         id="feGaussianBlur4484" /><feOffset
         dx="0"
         dy="1.9"
         result="offset"
         id="feOffset4486" /><feComposite
         in="SourceGraphic"
         in2="offset"
         operator="over"
         result="composite2"
         id="feComposite4488" /></filter><filter
       style="color-interpolation-filters:sRGB;"
       inkscape:label="Drop Shadow"
       id="filter4427"><feFlood
         flood-opacity="0.498039"
         flood-color="rgb(0,0,0)"
         result="flood"
         id="feFlood4429" /><feComposite
         in="flood"
         in2="SourceGraphic"
         operator="in"
         result="composite1"
         id="feComposite4431" /><feGaussianBlur
         in="composite1"
         stdDeviation="1"
         result="blur"
         id="feGaussianBlur4433" /><feOffset
         dx="0"
         dy="2"
         result="offset"
         id="feOffset4435" /><feComposite
         in="SourceGraphic"
         in2="offset"
         operator="over"
         result="composite2"
         id="feComposite4437" /></filter><linearGradient
       inkscape:collect="always"
       xlink:href="#linearGradient4163"
       id="linearGradient4169"
       x1="53.884136"
       y1="100.13989"
       x2="53.884136"
       y2="0.55534863"
       gradientUnits="userSpaceOnUse" /><linearGradient
       inkscape:collect="always"
       xlink:href="#linearGradient4171"
       id="linearGradient4177"
       x1="41.484077"
       y1="100.25574"
       x2="41.484077"
       y2="-0.37212291"
       gradientUnits="userSpaceOnUse" /><linearGradient
       inkscape:collect="always"
       xlink:href="#linearGradient4181"
       id="linearGradient4187"
       x1="54.01157"
       y1="73.859512"
       x2="54.01157"
       y2="8.3530703"
       gradientUnits="userSpaceOnUse" /><radialGradient
       inkscape:collect="always"
       xlink:href="#linearGradient4205"
       id="radialGradient4211"
       cx="49.050003"
       cy="81.859268"
       fx="49.050003"
       fy="81.859268"
       r="5.9999999"
       gradientUnits="userSpaceOnUse" /></defs><sodipodi:namedview
     pagecolor="#ffffff"
     bordercolor="#666666"
     borderopacity="1"
     objecttolerance="10"
     gridtolerance="10"
     guidetolerance="10"
     inkscape:pageopacity="0"
     inkscape:pageshadow="2"
     inkscape:window-width="1920"
     inkscape:window-height="1175"
     id="namedview10"
     showgrid="false"
     inkscape:zoom="4.671296"
     inkscape:cx="-4.5113929"
     inkscape:cy="-31.684332"
     inkscape:window-x="0"
     inkscape:window-y="0"
     inkscape:window-maximized="1"
     inkscape:current-layer="svg2" /><path
     style="opacity:1;fill:url(#linearGradient4187);fill-opacity:1;fill-rule:evenodd;stroke:none;stroke-width:1px;stroke-linecap:butt;stroke-linejoin:miter;stroke-opacity:1;filter:url(#filter4427)"
     d="M 40,9.5 24.4,71 73.7,71 58.3,9.5 Z"
     id="path4139"
     inkscape:connector-curvature="0"
     sodipodi:nodetypes="ccccc" /><path
     d="m 86.945,10.635 c -0.863,-0.494 -1.964,-0.19 -2.455,0.673 L 76.18,25.899 73.289,24.154 71.52,33.601 71.725,33.724 70.422,36.01 63.111,6.819 C 62.861,5.819 61.812,5 60.781,5 L 37.608,5 c -1.031,0 -2.082,0.818 -2.334,1.818 l -21.82,86.364 c -0.253,1 0.385,1.818 1.416,1.818 l 68.459,0 c 1.031,0 1.67,-0.818 1.42,-1.818 L 71.69,41.061 l 3.117,-5.475 0.152,0.092 7.559,-5.951 -3.257,-1.966 8.355,-14.67 c 0.494,-0.865 0.194,-1.964 -0.671,-2.456 z m -15.365,59.99 -16.725,0 12.946,-22.737 5.197,20.789 c 0.252,1.001 -0.388,1.948 -1.418,1.948 z m -20.866,0 -24.144,0 c -1.031,0 -1.669,-0.994 -1.416,-1.994 L 39.59,11.5 c 0.253,-1 1.303,-1.812 2.334,-1.812 l 14.431,0 c 1.032,0 2.081,0.725 2.331,1.725 L 66.54,42.834 50.714,70.625 Z"
     id="path4"
     inkscape:connector-curvature="0"
     style="fill:#47a8e9;fill-opacity:1;stroke:none;filter:url(#filter4427)" /><path
     style="fill:url(#linearGradient4169);fill-opacity:1;stroke:url(#linearGradient4177);stroke-width:3;stroke-miterlimit:4;stroke-dasharray:none;stroke-opacity:1"
     inkscape:connector-curvature="0"
     id="path4151"
     d="m 86.945,10.635 c -0.863,-0.494 -1.964,-0.19 -2.455,0.673 L 76.18,25.899 73.289,24.154 71.52,33.601 71.725,33.724 70.422,36.01 63.111,6.819 C 62.861,5.819 61.812,5 60.781,5 L 37.608,5 c -1.031,0 -2.082,0.818 -2.334,1.818 l -21.82,86.364 c -0.253,1 0.385,1.818 1.416,1.818 l 68.459,0 c 1.031,0 1.67,-0.818 1.42,-1.818 L 71.69,41.061 l 3.117,-5.475 0.152,0.092 7.559,-5.951 -3.257,-1.966 8.355,-14.67 c 0.494,-0.865 0.194,-1.964 -0.671,-2.456 z m -15.365,59.99 -16.725,0 12.946,-22.737 5.197,20.789 c 0.252,1.001 -0.388,1.948 -1.418,1.948 z m -20.866,0 -24.144,0 c -1.031,0 -1.669,-0.994 -1.416,-1.994 L 39.59,11.5 c 0.253,-1 1.303,-1.812 2.334,-1.812 l 14.431,0 c 1.032,0 2.081,0.725 2.331,1.725 L 66.54,42.834 50.714,70.625 Z" /><circle
     style="opacity:1;fill:url(#radialGradient4211);fill-opacity:1;stroke:#2f2f2f;stroke-width:0.86677635;stroke-linecap:round;stroke-miterlimit:4;stroke-dasharray:none;stroke-opacity:1"
     id="path4195"
     cx="49.050003"
     cy="84"
     r="5.5666118" /></svg>